<?xml version="1.0" standalone="no"?>
<!DOCTYPE svg PUBLIC "-//W3C//DTD SVG 20010904//EN"
 "http://www.w3.org/TR/2001/REC-SVG-20010904/DTD/svg10.dtd">
<svg version="1.0" xmlns="http://www.w3.org/2000/svg"
 width="1024.000000pt" height="1024.000000pt" viewBox="0 0 1024.000000 1024.000000"
 preserveAspectRatio="xMidYMid meet">

<g transform="translate(0.000000,1024.000000) scale(0.100000,-0.100000)"
fill="#000000" stroke="none">
<path d="M0 7666 l0 -2574 28 -6 c15 -3 115 -10 222 -16 855 -45 775 -41 1325
-65 380 -17 413 -19 790 -46 154 -11 299 -25 323 -31 58 -15 132 -87 132 -129
0 -34 -15 -37 -50 -9 -14 11 -36 20 -49 20 -14 0 -52 11 -85 24 -67 26 -240
40 -906 71 -173 8 -344 17 -380 20 -135 11 -713 46 -920 55 -118 5 -263 13
-322 16 l-108 7 0 -1622 c0 -891 2 -1621 5 -1621 3 0 24 12 47 27 41 27 45 28
167 26 116 -3 147 -7 270 -34 156 -35 213 -119 140 -210 -35 -45 -62 -49 -85
-14 -19 29 -40 34 -29 8 4 -10 9 -30 11 -45 5 -39 -23 -43 -80 -13 -48 25 -82
33 -71 16 3 -6 -11 -13 -32 -17 -41 -8 -59 -24 -40 -37 7 -5 0 -7 -19 -5 -28
4 -31 2 -29 -21 4 -53 4 -52 26 -40 12 6 19 7 16 2 -2 -4 -1 -17 4 -28 7 -19
8 -19 8 3 1 25 11 28 29 10 14 -14 16 -62 3 -53 -12 7 -18 -3 -26 -41 -6 -27
-12 -52 -15 -64 -1 -3 -6 4 -11 15 -7 16 -8 13 -4 -13 6 -40 -12 -83 -26 -61
-7 11 -9 11 -9 -3 0 -11 -5 -15 -15 -12 -16 7 -21 34 -6 34 10 0 9 11 -4 62
-9 36 -35 25 -36 -16 l-1 -31 -11 32 c-9 25 -15 30 -27 23 -9 -6 -10 -10 -3
-10 7 0 11 -6 9 -13 -3 -6 -7 -25 -10 -40 -8 -35 -22 -27 -30 18 -4 19 -11 37
-16 40 -17 11 -3 -52 20 -90 12 -20 20 -39 16 -42 -3 -3 -10 5 -15 18 -5 13
-10 20 -10 14 -1 -15 -41 53 -41 69 0 9 -7 12 -20 9 -11 -3 -20 -12 -20 -21 0
-21 -16 -4 -23 23 -3 11 -5 -148 -6 -352 -1 -356 0 -373 17 -373 11 0 27 -9
36 -19 15 -16 16 -31 10 -105 -5 -67 -10 -86 -20 -82 -8 3 -21 3 -29 0 -12 -5
-15 -32 -15 -155 l0 -149 5120 0 5120 0 0 1195 c0 1182 0 1196 -19 1185 -16
-8 -25 -5 -46 16 -24 24 -25 29 -14 56 8 19 15 25 19 17 4 -6 13 -8 20 -4 9 5
10 1 5 -15 -6 -19 -4 -22 10 -17 9 4 19 7 21 7 2 0 4 30 4 66 0 57 -2 65 -17
62 -10 -2 -19 -12 -21 -22 -3 -14 0 -17 12 -13 12 5 16 0 16 -21 0 -21 -5 -28
-20 -29 -11 -1 -20 3 -20 8 0 6 -7 6 -19 0 -10 -6 -21 -7 -25 -4 -11 12 -6 48
11 72 9 14 11 21 5 17 -9 -5 -11 10 -7 59 4 51 2 64 -8 59 -8 -5 -8 -2 2 9 15
19 20 20 39 8 12 -7 12 -12 1 -29 -17 -26 -9 -35 25 -26 24 6 26 10 26 62 0
51 -1 54 -14 36 -8 -10 -18 -16 -22 -12 -4 4 -1 14 6 23 7 8 10 15 7 15 -3 0
1 28 9 61 15 63 16 131 2 123 -4 -3 -5 -11 -1 -19 3 -8 0 -15 -6 -15 -6 0 -11
11 -11 25 0 23 -2 24 -20 13 -11 -7 -20 -22 -19 -33 0 -18 1 -18 9 3 14 33 20
27 17 -17 -1 -21 -6 -37 -10 -34 -4 3 -15 -1 -24 -9 -14 -11 -16 -11 -9 2 4 8
-1 5 -10 -8 -28 -38 -50 -28 -44 22 1 11 -3 15 -9 12 -6 -4 -11 -2 -11 4 0 7
-8 9 -19 5 -11 -3 -22 -1 -26 5 -4 6 -15 8 -26 5 -22 -7 -37 18 -21 38 5 6 12
23 15 37 3 14 21 45 38 69 l33 44 22 -28 c17 -22 27 -26 48 -21 14 3 38 9 52
12 17 5 29 2 35 -7 5 -8 9 91 9 242 0 235 -1 257 -17 264 -29 12 -93 17 -93 7
0 -5 -17 -9 -37 -9 -21 1 -51 -5 -68 -14 -35 -17 -65 -14 -65 7 0 31 73 80
104 68 8 -3 21 5 30 18 9 12 16 19 16 15 0 -4 11 0 25 9 24 16 25 15 25 -5 0
-21 1 -22 25 -4 13 10 25 25 25 33 0 8 7 24 15 34 11 14 15 46 15 107 0 77 -3
91 -22 114 -13 14 -30 27 -38 29 -8 2 -26 8 -40 13 -14 6 -29 8 -34 6 -4 -3
-11 -1 -15 5 -11 18 -57 20 -53 3 3 -12 1 -12 -13 -1 -14 12 -18 11 -26 -1 -7
-12 -9 -11 -9 3 0 20 -36 13 -64 -14 -11 -10 -27 -18 -36 -18 -8 0 -27 -21
-40 -48 -14 -26 -29 -50 -33 -53 -4 -3 -5 -13 -1 -22 3 -10 1 -24 -6 -32 -10
-12 -10 -15 0 -15 7 0 10 -9 6 -28 -4 -15 -8 -36 -10 -47 -3 -11 -9 -39 -14
-61 -5 -23 -7 -64 -4 -92 3 -40 0 -58 -17 -86 -13 -20 -20 -40 -17 -45 4 -5 2
-11 -4 -13 -7 -2 -7 -14 0 -38 8 -28 7 -37 -5 -46 -8 -6 -15 -19 -15 -28 0 -9
-4 -16 -9 -16 -5 0 -11 -17 -15 -39 -6 -41 -29 -70 -41 -51 -4 6 -1 17 5 25 7
8 10 21 7 30 -4 8 -2 17 3 20 6 4 10 11 10 17 0 6 -11 3 -25 -6 l-25 -16 0 65
c0 51 -3 65 -15 65 -8 0 -15 9 -15 20 0 20 0 20 -52 0 -72 -27 -98 -26 -98 3
1 37 31 66 75 72 39 5 85 40 78 60 -5 16 48 37 62 25 26 -21 37 19 52 185 3
39 14 91 24 117 18 46 18 47 -1 53 -11 4 -20 10 -20 14 0 13 24 31 40 31 9 0
25 9 36 21 11 12 26 18 37 15 11 -2 30 -1 42 4 19 7 25 5 28 -8 4 -16 5 -16 6
1 1 10 9 17 20 17 11 0 23 5 26 10 4 6 10 8 15 5 5 -3 11 -1 15 4 3 6 20 4 42
-6 34 -14 38 -13 49 2 7 9 19 15 26 13 7 -3 23 7 35 21 21 24 24 31 22 47 0 4
5 10 11 14 16 10 19 118 3 125 -7 2 -13 13 -13 24 0 23 -21 37 -93 58 -29 8
-58 20 -64 25 -10 8 -13 6 -13 -7 0 -13 -6 -16 -25 -13 -14 3 -25 1 -25 -3 0
-5 -4 -9 -10 -9 -24 0 -4 29 68 99 101 98 131 157 117 237 -7 43 -39 58 -86
41 -58 -20 -110 -60 -105 -80 2 -9 1 -17 -4 -17 -13 0 -21 -33 -10 -44 15 -15
12 -29 -5 -22 -11 4 -15 -2 -15 -24 0 -16 -4 -32 -10 -35 -17 -11 -3 -117 20
-148 25 -33 19 -47 -13 -28 -15 10 -22 10 -25 2 -2 -6 -10 -11 -18 -11 -8 0
-14 -5 -14 -11 0 -5 -4 -8 -9 -5 -5 4 -7 -3 -4 -15 3 -12 11 -18 19 -15 8 3
14 -1 14 -10 0 -8 -6 -14 -12 -13 -27 3 -38 -2 -38 -16 0 -22 -40 -41 -51 -24
-13 21 -11 67 3 71 7 3 6 7 -5 11 -9 3 -17 2 -17 -3 0 -6 -8 -10 -17 -9 -15 0
-14 3 5 16 12 8 22 24 22 34 0 11 4 19 8 19 5 0 15 18 22 40 9 27 19 40 32 40
10 0 18 4 18 9 0 5 3 16 6 25 4 11 1 16 -10 16 -9 0 -16 5 -16 12 0 6 -9 31
-21 54 -13 29 -25 41 -35 37 -8 -3 -14 0 -14 6 0 14 -42 14 -73 0 -29 -13 -48
-45 -50 -83 -1 -14 -4 -26 -7 -26 -3 0 -6 -30 -7 -66 -1 -36 -3 -67 -5 -69 -2
-2 -16 -7 -32 -11 -25 -6 -28 -4 -23 10 4 10 1 19 -8 22 -8 4 -15 12 -15 20 0
10 -6 11 -26 4 -18 -7 -30 -7 -38 -1 -22 19 -124 -19 -111 -40 3 -4 2 -16 -3
-26 -5 -10 -16 -35 -25 -56 -34 -77 -50 -113 -63 -138 -7 -14 -13 -34 -13 -45
0 -10 -3 -43 -7 -71 -5 -43 -4 -53 8 -53 10 0 18 -19 25 -57 9 -49 8 -61 -5
-76 -9 -10 -22 -35 -28 -55 -11 -31 -11 -34 0 -19 7 9 16 17 20 17 12 0 6 -28
-7 -33 -9 -3 -12 -17 -9 -41 3 -30 8 -36 28 -36 18 0 25 -7 30 -28 4 -15 14
-35 22 -44 14 -17 13 -18 -16 -18 -33 0 -40 8 -21 27 19 19 -10 27 -31 8 -21
-19 -45 -11 -36 11 3 8 1 14 -4 14 -5 0 -12 9 -15 20 -3 11 -13 20 -21 20 -8
0 -14 7 -14 15 0 8 -5 15 -11 15 -6 0 -10 10 -9 23 4 39 0 47 -20 47 -11 0
-27 12 -36 26 -14 20 -23 24 -48 21 -55 -8 -68 -18 -63 -45 3 -13 -1 -35 -8
-49 -7 -13 -11 -42 -9 -64 3 -29 -1 -41 -11 -45 -9 -4 -15 -19 -15 -39 0 -18
-6 -35 -13 -38 -19 -6 -81 14 -90 29 -4 8 -17 14 -28 14 -11 0 -29 4 -39 10
-15 8 -20 6 -25 -10 -4 -11 -12 -19 -18 -18 -18 4 -67 -32 -67 -48 0 -8 -3
-13 -7 -12 -17 5 -53 -24 -53 -42 0 -11 -7 -20 -15 -20 -8 0 -15 -7 -15 -16 0
-11 -5 -14 -16 -10 -9 3 -17 6 -19 6 -8 0 27 59 45 75 11 10 20 24 20 32 0 20
31 64 40 58 5 -3 12 0 16 6 4 8 3 9 -4 5 -6 -3 -16 2 -21 13 -15 26 -14 28 9
34 20 5 20 5 -1 42 -22 36 -31 107 -15 122 4 4 54 9 111 9 90 2 106 5 124 23
22 22 67 28 73 10 2 -7 18 -3 41 11 22 13 47 20 62 18 16 -3 30 1 41 13 22 24
31 24 39 -1 12 -37 45 -17 88 52 15 24 15 29 2 42 -8 8 -15 25 -14 38 1 37
-20 123 -31 126 -6 2 -10 13 -10 23 0 11 4 18 9 15 10 -7 104 141 145 229 l28
59 -26 19 c-15 11 -33 32 -42 49 -15 28 -14 31 11 64 14 19 33 34 41 34 7 0
14 6 14 14 0 7 9 25 21 40 11 14 18 30 14 35 -7 12 17 91 27 91 5 0 8 9 8 20
0 25 12 25 34 1 15 -17 15 -19 1 -25 -10 -4 -14 -13 -11 -24 4 -10 -1 -34 -11
-52 -21 -43 -24 -90 -6 -90 7 0 13 -4 13 -10 0 -19 42 -10 110 23 53 25 68 37
67 52 -2 15 7 23 30 29 20 6 36 20 43 35 5 15 20 42 32 61 22 36 49 117 53
160 2 31 -16 81 -28 73 -4 -3 -11 4 -14 16 -6 24 -40 38 -56 22 -6 -6 -19 -11
-29 -11 -10 0 -18 -5 -18 -11 0 -7 -11 -9 -30 -5 -31 6 -38 -2 -19 -21 14 -14
-3 -24 -21 -13 -12 8 -13 13 -2 30 6 11 12 25 12 30 0 13 108 151 127 163 7 4
13 13 13 20 0 7 16 23 35 37 64 46 76 85 72 221 -4 99 -7 123 -23 142 -15 17
-15 19 -2 8 24 -18 35 -8 42 42 7 48 77 178 120 223 44 46 86 111 86 132 0 10
30 61 67 112 77 105 80 109 87 133 3 10 22 25 41 33 l35 14 0 372 c0 353 -1
370 -18 355 -9 -8 -29 -19 -44 -22 -40 -10 -36 8 17 89 l45 69 0 1488 0 1489
-5120 0 -5120 0 0 -2574z m6391 1751 c-10 -9 -11 -8 -5 6 3 10 9 15 12 12 3
-3 0 -11 -7 -18z m-20 -60 c-10 -9 -11 -8 -5 6 3 10 9 15 12 12 3 -3 0 -11 -7
-18z m-432 -693 c22 14 11 -2 -12 -17 -23 -15 -24 -15 -19 10 3 16 7 21 12 13
4 -7 13 -9 19 -6z m85 1 c-4 -8 -8 -15 -10 -15 -2 0 -4 7 -4 15 0 8 4 15 10
15 5 0 7 -7 4 -15z m-173 -174 c-6 -10 -7 -21 -4 -25 3 -3 -1 -6 -10 -6 -16 0
-22 -12 -18 -33 1 -5 -3 -6 -9 -2 -5 3 -10 1 -10 -5 0 -6 -5 -8 -11 -5 -7 5
-5 11 4 18 8 7 24 27 36 45 24 35 38 43 22 13z m-111 -69 c0 -4 -10 -13 -22
-21 -23 -14 -23 -14 -4 8 20 22 26 25 26 13z m-75 -22 c4 -6 3 -10 -2 -9 -4 1
-21 -3 -36 -9 -16 -7 -34 -12 -40 -12 -7 0 -23 -7 -35 -16 -12 -8 -22 -11 -22
-7 0 13 59 45 70 38 6 -3 10 -1 10 5 0 6 4 9 9 5 5 -3 12 -1 16 5 8 13 22 13
30 0z m178 -15 c-3 -9 -8 -14 -10 -11 -3 3 -2 9 2 15 9 16 15 13 8 -4z m-146
-47 c-3 -8 -6 -5 -6 6 -1 11 2 17 5 13 3 -3 4 -12 1 -19z m-201 -13 c-8 -8
-18 -15 -22 -15 -3 0 -1 7 6 15 7 8 17 15 22 15 5 0 3 -7 -6 -15z m-36 -18 c0
-2 -19 -21 -42 -42 -25 -25 -37 -31 -30 -18 14 25 72 74 72 60z m36 -69 c4 -7
4 -10 -1 -6 -4 4 -15 2 -24 -5 -14 -11 -14 -10 -2 6 16 20 18 21 27 5z m35
-181 c-10 -9 -11 -8 -5 6 3 10 9 15 12 12 3 -3 0 -11 -7 -18z m-101 9 c0 -3
-4 -8 -10 -11 -5 -3 -10 -1 -10 4 0 6 5 11 10 11 6 0 10 -2 10 -4z m15 -26
c-3 -5 -12 -10 -18 -10 -7 0 -6 4 3 10 19 12 23 12 15 0z m59 -7 c-5 -5 -12
-12 -16 -18 -4 -6 -8 -2 -8 8 0 9 7 17 17 17 9 0 12 -3 7 -7z m91 -13 c3 0 3
4 0 10 -3 6 1 7 9 4 19 -7 21 -24 4 -24 -25 0 -58 13 -58 22 0 5 8 4 19 -2 11
-5 22 -10 26 -10z m95 16 c0 -2 -7 -6 -15 -10 -8 -3 -15 -1 -15 4 0 6 7 10 15
10 8 0 15 -2 15 -4z m-495 -26 c4 -6 -1 -7 -11 -3 -10 4 -15 2 -11 -3 3 -5 -3
-10 -14 -10 -21 0 -25 12 -6 19 20 9 35 8 42 -3z m450 -26 c-15 -16 -29 -19
-21 -5 4 5 0 11 -6 14 -7 2 -1 4 14 4 23 0 25 -2 13 -13z m45 -9 c-7 -8 -17
-15 -22 -15 -6 0 -5 7 2 15 7 8 17 15 22 15 6 0 5 -7 -2 -15z m117 9 c-3 -3
-12 -4 -19 -1 -8 3 -5 6 6 6 11 1 17 -2 13 -5z m-22 -18 c5 0 16 -7 24 -15 11
-9 16 -10 19 -2 2 6 8 11 14 11 6 0 6 -6 -2 -15 -9 -11 -17 -12 -32 -4 -17 9
-39 14 -85 18 -7 0 -13 6 -13 12 0 7 12 8 33 4 17 -4 36 -8 42 -9z m-726 -12
c7 5 9 1 5 -8 -5 -14 -24 -23 -24 -12 0 2 -3 13 -6 23 -4 14 -4 15 4 4 5 -7
15 -11 21 -7z m53 4 c-7 -7 -12 -19 -12 -28 0 -10 -10 -15 -32 -16 l-33 -1 28
11 c15 5 27 15 27 22 0 7 6 15 13 17 20 9 22 8 9 -5z m54 -13 c2 -29 -2 -31
-22 -11 -16 17 -19 30 -4 21 6 -3 10 -1 10 4 0 23 15 10 16 -14z m44 11 c0 -3
-4 -8 -10 -11 -5 -3 -10 -1 -10 4 0 6 5 11 10 11 6 0 10 -2 10 -4z m-180 -34
c0 -15 -2 -15 -10 -2 -13 20 -13 33 0 25 6 -3 10 -14 10 -23z m843 14 c4 -10
1 -13 -8 -9 -8 3 -12 9 -9 14 7 12 11 11 17 -5z m-963 -6 c-20 -13 1 -13 34 0
19 7 26 6 26 -3 0 -8 4 -7 10 3 5 8 12 11 17 7 10 -11 -16 -26 -39 -22 -10 2
-18 1 -18 -3 0 -4 -10 -8 -23 -8 -16 -1 -23 4 -24 17 -1 12 5 19 15 19 15 0
15 -2 2 -10z m225 -8 c-3 -3 -11 0 -18 7 -9 10 -8 11 6 5 10 -3 15 -9 12 -12z
m240 -2 c4 -6 1 -9 -7 -8 -7 2 -12 -3 -10 -9 3 -18 -15 -16 -22 3 -3 8 -2 12
3 9 5 -3 12 -1 16 5 8 13 12 13 20 0z m538 -7 c-3 -7 -9 -10 -14 -7 -14 8 -11
21 5 21 8 0 12 -6 9 -14z m-1126 -25 c-3 -7 -5 -2 -5 12 0 14 2 19 5 13 2 -7
2 -19 0 -25z m88 23 c3 -5 1 -12 -5 -16 -5 -3 -10 -1 -10 4 0 6 -7 11 -15 11
-8 0 -15 -4 -15 -10 0 -5 -7 -7 -15 -4 -8 4 -13 9 -11 13 7 11 64 12 71 2z
m539 -6 c-6 -16 -24 -21 -24 -7 0 11 11 22 21 22 5 0 6 -7 3 -15z m136 -7 c0
-17 3 -19 9 -9 6 10 13 10 28 3 15 -8 22 -7 31 9 15 23 37 25 28 3 -6 -15 -4
-15 11 -3 9 8 14 9 10 2 -4 -6 -3 -14 3 -18 14 -8 13 -35 -1 -35 -6 0 -9 7 -6
15 4 8 2 17 -2 20 -5 3 -12 -2 -15 -11 -4 -9 -9 -14 -13 -11 -3 4 -13 1 -21
-6 -13 -9 -14 -9 -8 1 7 12 -2 16 -40 13 -16 -2 -23 5 -26 23 -3 15 -1 26 3
26 5 0 9 -10 9 -22z m-790 2 c0 -5 -2 -10 -4 -10 -3 0 -8 5 -11 10 -3 6 -1 10
4 10 6 0 11 -4 11 -10z m687 -12 c-3 -8 -6 -5 -6 6 -1 11 2 17 5 13 3 -3 4
-12 1 -19z m53 12 c0 -5 -4 -10 -10 -10 -5 0 -10 5 -10 10 0 6 5 10 10 10 6 0
10 -4 10 -10z m265 0 c4 -6 -1 -7 -11 -3 -15 5 -16 2 -11 -28 6 -30 5 -32 -7
-16 -8 10 -12 27 -9 37 6 21 28 27 38 10z m-1116 -19 c-13 -11 -26 -17 -28
-15 -5 5 30 33 43 34 4 0 -2 -9 -15 -19z m1061 -13 c0 -19 -2 -20 -10 -8 -13
19 -13 30 0 30 6 0 10 -10 10 -22z m116 4 c1 -7 0 -8 -3 -2 -9 19 -21 10 -16
-12 5 -18 3 -21 -7 -11 -15 14 -5 46 12 41 6 -2 13 -10 14 -16z m44 -11 c-14
-27 -30 -27 -23 -1 3 11 9 17 14 14 5 -3 9 0 9 7 0 7 3 10 6 7 3 -4 1 -16 -6
-27z m31 -4 c-19 -19 -12 -31 8 -13 13 12 21 14 26 6 4 -6 13 -9 20 -6 8 3 11
-2 8 -14 -3 -10 0 -21 6 -24 6 -4 11 1 11 12 0 10 7 19 16 19 10 0 14 -7 11
-19 -4 -13 1 -22 16 -27 20 -7 20 -8 -6 -13 -16 -3 -24 -1 -20 5 4 6 0 8 -11
4 -12 -5 -23 3 -38 30 -23 38 -37 31 -18 -9 11 -23 11 -23 -6 -3 -11 14 -18
16 -21 8 -3 -10 -9 -9 -20 3 -13 13 -14 19 -3 39 7 14 17 22 22 19 6 -4 5 -11
-1 -17z m-1308 -4 c-7 -2 -13 -11 -13 -18 0 -7 -7 -15 -15 -19 -8 -3 -15 -3
-15 -1 0 10 35 45 45 44 5 0 4 -3 -2 -6z m1497 -78 c1 11 4 14 7 8 3 -10 10
-10 26 -2 18 9 20 9 10 -2 -15 -16 -17 -33 -3 -24 6 4 28 -2 50 -11 31 -14 37
-21 29 -31 -15 -18 -32 -17 -25 2 8 21 -11 19 -24 -2 -8 -14 -9 -12 -3 12 5
25 4 28 -8 18 -9 -8 -20 -9 -29 -3 -11 7 -17 4 -22 -8 -6 -16 -7 -16 -7 1 -1
15 -12 21 -33 18 -4 0 -5 11 -2 24 3 19 0 25 -13 25 -15 0 -16 2 -3 10 11 7
19 2 32 -23 14 -26 17 -28 18 -12z m190 -80 c0 -7 -4 -17 -10 -20 -6 -3 -7 1
-4 9 3 9 1 16 -5 16 -6 0 -11 -10 -11 -22 0 -21 -1 -21 -20 -3 -22 20 -15 29
24 33 17 1 26 -3 26 -13z m140 -73 c0 -13 -12 -22 -22 -16 -10 6 -1 24 13 24
5 0 9 -4 9 -8z m43 -22 c-3 -11 -9 -20 -13 -20 -5 0 -6 9 -3 20 3 11 9 20 13
20 5 0 6 -9 3 -20z m-1171 -4 c21 -2 44 -9 53 -16 12 -10 18 -10 32 1 15 13
16 12 11 -9 -5 -19 -4 -21 8 -11 8 6 14 8 14 3 1 -5 7 2 15 16 14 25 14 25 15
3 0 -24 20 -33 20 -10 0 7 7 4 15 -7 11 -14 15 -16 15 -5 0 8 6 2 14 -13 8
-15 13 -42 11 -60 -7 -60 -12 -85 -19 -96 -4 -7 -4 -17 -1 -23 8 -12 34 18 35
39 0 23 26 42 38 30 8 -8 13 -7 18 5 3 9 10 15 14 12 5 -3 12 4 15 16 4 11 9
18 12 15 4 -3 12 -1 20 5 7 6 13 8 13 5 0 -4 10 2 22 13 11 11 25 18 30 15 4
-3 8 0 8 7 0 6 8 9 20 6 10 -3 21 0 23 7 3 7 9 6 22 -4 17 -14 18 -14 6 9 -14
26 -4 23 32 -7 16 -15 17 -14 11 2 -5 12 -2 17 7 15 8 -1 22 1 31 5 9 4 26 2
38 -4 18 -10 25 -9 32 1 8 11 9 10 4 -3 -5 -16 4 -23 26 -19 4 0 5 -6 1 -15
-4 -10 -1 -15 8 -14 32 5 48 -1 54 -21 5 -15 10 -17 20 -9 15 12 26 1 49 -50
9 -19 13 -25 10 -13 -2 12 1 25 7 29 7 4 9 3 5 -4 -3 -5 -2 -12 4 -14 16 -5
12 -111 -4 -137 -7 -10 -6 -12 4 -6 10 6 12 -2 7 -39 -6 -41 -5 -47 11 -45 9
1 30 -3 46 -10 16 -6 34 -10 40 -7 6 2 3 5 -6 5 -31 2 -58 50 -58 103 0 41 3
51 20 55 11 3 20 9 20 15 0 5 6 15 12 22 11 11 15 11 25 -3 12 -15 13 -15 7 0
-3 11 2 18 16 22 16 4 20 2 16 -9 -7 -17 20 -19 28 -1 5 9 7 9 12 0 3 -7 12
-9 21 -6 11 4 14 2 9 -5 -9 -16 7 -15 22 0 9 9 12 8 12 -6 0 -16 2 -17 17 -5
15 13 16 11 10 -13 -6 -21 -2 -30 14 -42 12 -8 18 -19 14 -25 -7 -13 22 -10
44 3 10 6 12 5 7 -2 -7 -11 4 -16 20 -9 4 1 11 -9 17 -23 8 -20 11 -22 14 -7
3 9 9 17 15 17 6 0 8 -9 5 -20 -4 -17 -2 -20 14 -15 15 5 18 3 12 -12 -5 -14
-1 -13 20 6 33 30 36 17 5 -17 l-23 -23 28 10 c25 10 31 7 28 -12 -1 -4 7 -3
17 2 23 12 48 -2 36 -20 -6 -10 -3 -10 12 1 10 8 23 20 27 25 5 6 6 1 2 -10
-8 -24 -13 -45 -14 -62 -1 -7 -7 -13 -15 -13 -8 0 -16 -7 -20 -15 -8 -21 -26
-19 -27 3 0 14 -2 14 -9 -3 -5 -11 -9 -15 -9 -8 -1 7 -11 10 -27 7 -14 -3 -23
-1 -20 5 3 5 -1 11 -9 15 -8 3 -15 1 -15 -5 0 -6 -5 -7 -11 -4 -6 4 -8 14 -5
24 5 14 4 13 -8 -1 -18 -25 -29 -22 -23 5 6 20 5 21 -7 4 -12 -15 -24 -17 -76
-13 -33 2 -67 10 -75 16 -10 8 -14 8 -18 -2 -4 -8 -6 -7 -6 5 -1 9 -3 17 -5
17 -2 0 -11 2 -19 5 -8 4 -14 0 -14 -10 0 -11 38 -35 116 -71 64 -30 130 -69
148 -85 l31 -31 69 42 c37 23 102 68 143 101 102 81 250 154 250 123 0 -13
-47 -73 -53 -67 -4 3 -7 -1 -7 -10 0 -10 -5 -17 -10 -17 -6 0 -9 -5 -8 -11 2
-6 -6 -16 -17 -22 -11 -7 -22 -15 -25 -18 -3 -3 -43 -36 -89 -73 -46 -38 -93
-77 -104 -87 -22 -20 -29 -22 -62 -20 -16 2 -17 0 -5 -8 13 -9 13 -12 1 -23
-8 -7 -11 -8 -8 -2 6 9 -32 29 -39 21 -1 -1 1 -30 5 -65 l6 -63 35 23 c19 13
35 30 35 38 1 8 6 14 13 13 7 -2 12 5 12 15 0 16 19 37 63 71 16 13 20 13 28
0 8 -12 11 -11 20 4 6 9 14 15 19 12 5 -3 12 0 16 6 5 8 -3 10 -24 7 -30 -4
-31 -4 -14 12 9 9 25 15 34 12 13 -3 15 1 11 17 -3 12 -1 21 5 21 6 0 13 9 17
19 3 11 29 33 58 49 40 23 65 29 110 30 31 0 57 -4 57 -8 0 -5 13 -11 29 -15
16 -3 32 -13 35 -22 9 -23 -4 -31 -15 -10 -6 9 -18 17 -27 17 -10 0 -23 5 -30
10 -9 7 -9 7 -2 -2 15 -18 12 -36 -7 -42 -10 -3 1 -4 23 -2 23 2 48 0 55 -5
11 -7 10 -9 -4 -9 -10 0 -15 -5 -12 -10 4 -7 -3 -9 -22 -5 -23 5 -25 4 -7 -4
12 -5 24 -18 28 -28 6 -14 4 -15 -5 -6 -14 14 -39 6 -39 -14 0 -8 -5 -11 -11
-8 -21 13 -59 -5 -59 -28 -1 -20 -2 -21 -14 -4 -7 9 -24 17 -37 17 -22 0 -22
0 -3 -15 18 -14 17 -14 -14 -15 -18 0 -31 4 -28 8 3 5 -1 9 -8 9 -8 0 -12 -6
-9 -14 3 -7 -2 -13 -11 -13 -9 0 -16 -4 -16 -10 0 -10 14 -14 38 -11 6 1 20
-3 30 -9 14 -8 12 -9 -9 -4 -15 3 -30 1 -33 -5 -4 -6 -16 -11 -27 -11 -10 0
-19 -4 -19 -10 0 -5 -7 -10 -15 -10 -8 0 -15 -4 -15 -10 0 -5 11 -10 24 -10
13 0 31 -3 40 -6 9 -3 16 -1 16 5 0 6 -10 11 -22 11 -18 0 -20 2 -8 10 8 5 19
5 25 0 15 -12 125 -29 130 -20 7 12 -17 18 -56 15 l-34 -3 28 12 c15 7 26 14
23 17 -2 2 12 5 32 6 34 2 35 1 12 -8 -21 -9 -23 -12 -9 -19 23 -13 18 -52 -9
-66 -12 -6 -25 -14 -28 -17 -10 -10 40 -4 54 6 8 7 16 7 23 0 7 -7 -1 -13 -27
-18 -44 -8 -77 -28 -66 -40 4 -4 -20 -5 -53 -2 -39 4 -54 3 -45 -3 11 -7 8
-10 -15 -11 l-30 -1 29 -7 c37 -8 35 -27 -2 -24 -26 2 -26 1 -8 -12 20 -15 20
-15 0 -16 -10 -1 -23 -1 -27 0 -5 1 -6 -3 -2 -9 3 -5 16 -10 28 -11 14 0 17
-3 8 -6 -10 -4 -5 -10 15 -19 22 -11 24 -13 7 -10 -13 2 -26 0 -29 -5 -3 -5
-14 -9 -25 -9 -11 0 -17 -4 -14 -10 3 -5 -4 -10 -16 -10 l-21 0 23 -19 23 -19
-42 4 c-24 2 -40 -1 -37 -5 3 -5 -1 -16 -9 -23 -19 -19 4 -51 29 -41 13 4 16
3 11 -6 -4 -6 -19 -10 -33 -9 -15 2 -28 -3 -31 -11 -3 -9 1 -11 14 -7 16 5 19
0 20 -24 1 -30 -9 -39 -22 -19 -4 8 -9 7 -15 -2 -14 -22 -11 -27 19 -31 25 -3
25 -4 -13 -17 -66 -22 -115 -44 -115 -53 0 -11 5 -10 48 8 49 21 102 34 102
24 0 -4 -27 -18 -60 -30 -33 -12 -63 -27 -66 -32 -7 -11 19 -5 75 18 19 8 36
12 39 9 3 -3 0 -5 -7 -5 -8 0 -11 -6 -7 -16 3 -8 2 -13 -3 -9 -17 10 -63 -14
-57 -30 3 -8 1 -15 -4 -15 -6 0 -10 -5 -10 -11 0 -6 9 -8 23 -4 12 4 1 -7 -25
-24 -25 -17 -52 -39 -60 -49 -12 -15 -11 -16 5 -3 23 18 32 8 17 -20 -11 -20
-10 -21 6 -15 17 7 17 6 -1 -12 -11 -10 -29 -24 -40 -31 -18 -11 -18 -12 8 -8
15 2 27 3 27 2 0 -1 -18 -15 -40 -30 -23 -16 -36 -31 -31 -35 6 -3 -7 -11 -29
-17 -22 -5 -37 -6 -34 -2 3 5 -1 10 -8 10 -7 1 1 5 17 9 l30 8 -32 1 c-20 1
-33 -4 -33 -11 0 -6 -6 -3 -14 7 -7 10 -24 20 -37 22 -52 7 -60 10 -72 22 -10
11 -7 12 13 7 l25 -7 -23 14 c-12 7 -19 17 -15 22 4 4 4 6 -2 3 -5 -3 -23 1
-40 8 -30 13 -30 13 -5 15 18 1 20 3 7 6 -18 5 -18 5 0 20 17 14 17 14 -1 9
-13 -5 -17 -2 -12 9 3 9 0 15 -9 15 -24 0 -28 20 -8 42 10 12 12 18 6 14 -7
-4 -13 -2 -13 4 0 13 22 53 34 62 6 4 5 12 -2 20 -7 9 -8 19 -2 28 6 8 10 20
10 25 0 6 -5 3 -10 -5 -11 -17 -13 -10 -4 14 3 9 18 16 33 16 107 1 232 143
276 314 20 77 12 84 -10 9 -22 -72 -77 -179 -110 -215 -13 -15 -41 -39 -61
-55 -35 -26 -44 -28 -128 -28 -114 1 -194 21 -315 82 -75 37 -114 65 -188 136
-51 50 -90 81 -87 71 6 -16 3 -15 -19 5 -15 14 -27 20 -27 14 0 -6 -7 -13 -15
-17 -8 -3 -14 -2 -13 2 0 4 -6 24 -15 44 -10 21 -17 45 -18 55 -1 25 -27 91
-28 71 -1 -9 3 -28 9 -43 5 -14 14 -50 18 -80 8 -50 7 -53 -9 -44 -25 13 -29
12 -29 -11 0 -13 7 -20 20 -20 10 0 24 -10 31 -21 9 -17 8 -20 -2 -14 -9 6
-11 3 -6 -8 3 -9 1 -18 -6 -20 -8 -3 -5 -11 9 -23 12 -11 24 -36 28 -57 4 -21
14 -41 21 -44 8 -3 12 -9 9 -14 -3 -5 2 -12 10 -15 24 -9 19 -24 -6 -24 -16 0
-19 -3 -10 -8 8 -6 14 -41 17 -106 2 -54 6 -100 9 -103 2 -3 13 4 25 16 11 11
15 21 9 23 -5 2 -1 15 11 28 13 16 20 20 21 11 0 -8 3 -11 6 -8 4 4 1 14 -6
22 -11 13 -11 18 0 28 9 8 11 8 7 1 -4 -7 0 -15 9 -18 8 -3 12 -2 9 4 -15 25
15 5 70 -45 33 -30 64 -55 68 -55 5 0 5 -4 2 -10 -3 -5 -1 -11 4 -11 10 -1 18
-3 39 -8 4 -2 -2 -6 -13 -11 -17 -7 -17 -9 -2 -9 9 -1 17 -5 17 -11 0 -5 10
-10 23 -10 18 0 19 -2 7 -11 -11 -7 -6 -8 19 -3 l34 6 -27 -28 c-31 -34 -33
-48 -6 -39 24 8 29 -22 5 -31 -23 -9 -18 -24 8 -24 18 0 19 -2 7 -10 -8 -5
-10 -10 -5 -10 6 0 3 -4 -5 -10 -11 -7 -9 -11 13 -19 34 -13 34 -17 0 -35 -16
-9 -21 -16 -13 -16 12 0 11 -4 -4 -15 -19 -14 -19 -15 8 -15 25 0 26 -1 12
-16 -9 -8 -20 -12 -26 -9 -5 3 -10 1 -10 -4 0 -6 5 -11 11 -11 5 0 7 -4 4 -10
-3 -5 -1 -10 6 -10 7 0 10 -3 7 -6 -4 -3 -17 0 -30 6 -19 10 -21 10 -10 -1 19
-20 14 -31 -10 -24 -18 5 -20 4 -8 -4 8 -6 23 -8 33 -5 9 3 17 0 17 -6 0 -6
-3 -9 -8 -6 -4 2 -18 -2 -32 -10 -22 -12 -23 -13 -5 -14 16 -1 14 -4 -10 -15
-16 -7 -24 -14 -16 -14 8 -1 11 -4 8 -7 -4 -4 3 -20 15 -37 12 -17 16 -27 9
-23 -10 6 -12 3 -8 -10 4 -11 9 -32 12 -49 5 -23 0 -18 -19 20 -14 28 -21 52
-16 53 18 6 10 20 -15 24 -22 5 -23 3 -13 -16 6 -12 10 -21 8 -21 -3 0 4 -23
45 -155 16 -53 38 -156 60 -290 21 -120 21 -121 40 -114 37 15 9 195 -46 292
-36 62 -34 80 3 25 23 -35 48 -103 78 -211 11 -41 12 -43 26 -25 9 10 13 12 9
6 -3 -7 -2 -13 4 -13 5 0 12 -12 14 -27 3 -23 4 -22 6 8 0 20 8 42 16 49 9 8
15 8 15 2 0 -6 -6 -13 -12 -15 -8 -4 -7 -6 4 -6 9 -1 19 -7 21 -13 15 -38 4
41 -12 87 -11 30 -18 55 -17 55 2 0 21 -34 42 -75 21 -41 40 -72 42 -70 2 2 5
21 6 42 3 51 -61 170 -131 242 -58 60 -62 67 -35 52 32 -18 99 -96 145 -171
25 -41 63 -91 83 -110 63 -61 156 -280 154 -364 -1 -12 -12 22 -25 73 -14 52
-35 114 -47 137 -26 49 -118 162 -132 163 -6 1 2 -11 16 -26 38 -41 52 -73 39
-86 -6 -6 -11 -27 -12 -46 l-1 -36 -9 33 c-9 29 -11 31 -25 17 -9 -8 -22 -15
-30 -15 -8 0 -14 -4 -14 -10 0 -5 -7 -10 -15 -10 -9 0 -15 -10 -16 -22 -1 -17
-2 -19 -6 -6 -4 16 -6 16 -20 3 -8 -8 -18 -13 -23 -10 -5 3 -18 -7 -29 -21
-15 -19 -21 -22 -21 -10 0 21 -16 21 -24 0 -3 -9 -12 -14 -20 -11 -7 3 -19 0
-25 -6 -8 -8 -11 -8 -11 1 0 8 -8 6 -20 -6 -13 -12 -37 -19 -68 -20 -26 -1
-68 -3 -95 -4 -26 -2 -47 0 -47 4 0 4 -9 5 -19 3 -26 -5 -134 20 -201 48 -30
12 -57 22 -60 22 -3 1 -38 18 -77 38 -61 31 -73 41 -73 62 0 15 -6 25 -14 25
-10 0 -13 11 -10 40 2 25 0 39 -6 35 -6 -3 -10 0 -10 9 0 22 11 46 22 46 5 0
7 -4 3 -9 -3 -5 -1 -12 5 -16 5 -3 10 0 10 7 1 8 5 7 14 -5 15 -20 81 -42 96
-32 6 3 10 2 10 -2 0 -12 43 -12 51 0 3 4 13 1 22 -7 11 -11 18 -13 23 -5 4 8
9 7 16 -2 8 -11 11 -11 15 -1 4 10 8 10 20 1 12 -10 16 -10 24 2 7 11 9 9 9
-8 0 -16 5 -20 20 -16 11 3 20 10 20 16 0 6 7 2 15 -9 18 -24 18 -15 0 55 -14
55 -65 166 -65 142 0 -7 7 -25 15 -42 13 -25 13 -30 2 -35 -18 -7 -40 -2 -49
11 -4 6 -8 1 -8 -10 0 -11 -4 -15 -8 -10 -4 6 -23 11 -42 12 -36 2 -52 5 -107
22 -17 5 -33 7 -35 5 -5 -4 -59 46 -116 110 -33 38 -40 51 -32 65 17 33 75 93
102 107 15 8 42 28 59 45 17 17 33 28 36 25 8 -8 113 106 107 116 -3 5 0 7 6
6 7 -2 16 8 21 21 8 19 7 22 -4 12 -8 -6 -17 -8 -20 -4 -4 3 2 12 13 20 23 16
27 35 5 27 -8 -4 -13 -9 -11 -13 3 -4 -7 -8 -22 -9 -25 -1 -26 -1 -7 10 31 17
52 58 23 43 -7 -4 -5 0 5 8 20 16 23 31 5 22 -7 -4 -5 0 5 8 12 10 14 16 6 19
-8 3 -6 9 6 21 25 26 13 31 -17 8 l-25 -20 5 24 c2 14 8 23 12 20 5 -3 3 6 -3
19 -10 20 -15 22 -26 13 -11 -9 -13 -9 -8 0 4 6 3 14 -2 17 -5 3 -12 -6 -16
-22 -7 -25 -8 -25 -15 -7 -7 17 -9 17 -9 3 -1 -10 -1 -20 -1 -23 0 -3 -5 -12
-12 -19 -11 -12 -14 -11 -20 5 -4 10 -13 19 -19 19 -8 0 -8 -5 1 -16 8 -8 9
-14 4 -13 -23 4 -34 -3 -34 -21 0 -11 5 -20 11 -20 5 0 7 5 4 10 -3 6 -1 10 4
10 13 0 14 -10 2 -28 -6 -11 -13 -7 -30 14 l-23 29 6 -30 c3 -17 3 -24 0 -17
-3 6 -9 12 -14 12 -12 0 -5 -33 8 -38 7 -2 12 -8 12 -14 0 -6 -9 -3 -19 6 -21
19 -41 14 -41 -10 0 -8 -9 -14 -20 -14 -11 0 -20 -5 -20 -11 0 -5 -4 -7 -10
-4 -5 3 -10 -2 -10 -12 0 -10 -4 -14 -8 -8 -8 12 -44 16 -37 4 3 -4 -3 -8 -12
-7 -10 0 -38 -3 -63 -7 -114 -18 -280 -9 -265 15 4 6 -1 7 -11 3 -12 -4 -15
-3 -10 5 10 17 0 15 -18 -4 -13 -12 -16 -13 -16 -1 0 7 -11 19 -25 25 -21 10
-26 9 -35 -8 -14 -26 -12 -56 5 -90 9 -18 11 -30 5 -30 -6 0 -13 7 -17 16 -3
8 -12 13 -20 9 -12 -4 -14 0 -9 17 4 13 8 32 10 43 1 11 11 35 20 53 l17 34
-23 -7 c-56 -16 -196 -89 -276 -145 -107 -74 -147 -111 -213 -197 -93 -122
-92 -110 3 23 31 45 79 101 106 125 72 64 222 154 318 190 82 31 84 33 94 73
6 22 13 48 16 56 3 8 8 44 10 80 3 36 6 74 7 85 2 11 -1 25 -5 32 -5 6 -5 14
1 17 5 4 6 18 2 34 -4 15 -6 32 -4 38 2 6 -13 18 -34 27 l-38 16 43 -5 c43 -6
43 -6 36 22 -5 20 -4 25 5 19 9 -5 9 -1 -1 14 -11 18 -10 23 5 38 16 16 17 16
17 0 0 -10 4 -16 9 -12 6 3 13 -1 18 -9 4 -8 19 -20 33 -26 24 -10 24 -10 -5
-5 l-30 5 25 -15 c23 -13 17 -20 -15 -16 -5 1 0 -7 13 -18 26 -23 28 -32 5
-25 -15 5 -15 4 1 -6 15 -10 16 -14 5 -21 -11 -7 -11 -9 -1 -9 10 0 10 -5 2
-20 -6 -11 -8 -24 -6 -29 3 -5 -1 -12 -10 -15 -8 -3 -12 -11 -8 -17 3 -6 0
-15 -7 -20 -11 -7 -11 -9 -1 -9 8 0 10 -5 6 -12 -5 -9 -4 -10 3 -3 5 6 25 48
43 95 73 189 124 281 190 344 34 33 73 77 87 97 14 21 31 40 39 43 8 3 19 17
24 30 6 17 21 28 48 36 26 6 42 17 45 30 4 15 14 20 42 20 21 0 34 4 30 10
-11 18 -58 10 -91 -15 -34 -26 -64 -33 -64 -15 0 6 -6 17 -12 24 -10 10 -22
-6 -59 -83 -48 -96 -88 -158 -89 -133 0 7 7 26 15 41 8 16 11 32 7 36 -4 3 0
5 8 3 10 -2 24 22 46 77 35 88 54 153 28 96 -21 -47 -30 -31 -10 19 21 53 21
54 -16 46 -65 -13 -74 -26 -88 -131 -7 -52 -14 -94 -17 -92 -2 2 1 53 6 113
15 169 -1 212 -105 285 -140 97 -375 169 -551 169 -55 0 -66 -3 -98 -31 -19
-17 -32 -36 -28 -42 4 -6 1 -7 -6 -3 -8 5 -28 -8 -53 -34 -44 -45 -58 -42 -58
13 0 20 6 30 19 34 10 2 24 16 30 30 11 24 39 27 34 4 -2 -6 3 -11 10 -11 8 0
7 -4 -3 -10 -11 -7 -12 -10 -2 -10 8 0 16 8 19 18 4 18 88 73 130 86 11 4 24
13 27 21 3 8 13 15 22 15 16 0 16 -1 1 -18 -26 -28 -21 -32 34 -32 77 0 188
-19 246 -42 49 -19 55 -19 77 -5 23 15 24 15 30 -6 4 -17 8 -19 17 -10 10 10
7 17 -14 33 -30 24 -33 33 -14 52 13 15 18 31 21 65 0 11 5 19 9 16 5 -3 8 1
6 8 -3 28 1 39 16 39 12 0 13 4 5 19 -14 27 -13 31 9 31 30 0 34 17 9 34 -21
15 -20 15 25 14 33 0 47 -5 47 -14 0 -8 4 -14 8 -14 18 0 20 13 5 36 l-15 24
36 -15 c33 -14 36 -14 36 1 0 13 3 14 15 4 10 -9 15 -9 15 -1 0 6 9 11 21 11
11 0 18 4 14 9 -3 6 4 8 17 5 13 -3 40 -7 60 -8z m1212 -21 c8 -8 20 -15 27
-15 7 0 10 -3 6 -6 -7 -8 -67 18 -67 28 0 13 18 9 34 -7z m156 -75 c0 -5 -5
-10 -11 -10 -5 0 -7 5 -4 10 3 6 8 10 11 10 2 0 4 -4 4 -10z m-1073 -22 c-3
-8 -6 -5 -6 6 -1 11 2 17 5 13 3 -3 4 -12 1 -19z m1113 12 c0 -5 -2 -10 -4
-10 -3 0 -8 5 -11 10 -3 6 -1 10 4 10 6 0 11 -4 11 -10z m60 -32 c0 -12 -6 -9
-26 13 -19 22 -19 22 4 8 12 -8 22 -17 22 -21z m50 8 c0 -3 -4 -8 -10 -11 -5
-3 -10 -1 -10 4 0 6 5 11 10 11 6 0 10 -2 10 -4z m93 -41 c-3 -9 -8 -14 -10
-11 -3 3 -2 9 2 15 9 16 15 13 8 -4z m-2357 -22 c-7 -7 -26 7 -26 19 0 6 6 6
15 -2 9 -7 13 -15 11 -17z m9 -23 c-18 -20 -41 -28 -31 -11 4 5 0 12 -6 15 -7
3 -3 3 9 1 12 -3 24 -1 28 5 3 5 9 10 12 10 3 0 -2 -9 -12 -20z m2440 10 c3
-5 1 -10 -4 -10 -6 0 -11 5 -11 10 0 6 2 10 4 10 3 0 8 -4 11 -10z m69 -36 c3
-8 2 -12 -4 -9 -6 3 -10 10 -10 16 0 14 7 11 14 -7z m-2595 3 c-2 -2 -17 -11
-34 -22 l-30 -18 19 21 c11 12 26 22 34 22 9 0 13 -1 11 -3z m41 -17 c-8 -5
-22 -9 -30 -9 -10 0 -8 3 5 9 27 12 43 12 25 0z m-100 -40 c0 -5 -2 -10 -4
-10 -3 0 -8 5 -11 10 -3 6 -1 10 4 10 6 0 11 -4 11 -10z m2372 -132 c-18 -18
-15 -38 6 -38 16 -1 15 -2 -2 -11 -10 -6 -27 -20 -37 -30 -11 -11 -25 -17 -31
-13 -8 5 -5 12 9 23 11 9 17 23 15 30 -3 9 0 11 8 6 9 -6 11 -4 6 4 -8 12 23
56 32 46 3 -3 0 -11 -6 -17z m-2395 -10 c-3 -8 -6 -5 -6 6 -1 11 2 17 5 13 3
-3 4 -12 1 -19z m10 -60 c-3 -8 -6 -5 -6 6 -1 11 2 17 5 13 3 -3 4 -12 1 -19z
m2867 -43 c11 -8 15 -15 9 -15 -19 0 -43 12 -43 21 0 13 12 11 34 -6z m-2835
-37 c1 -5 -5 -7 -11 -5 -19 3 -12 -21 34 -125 60 -136 115 -207 227 -296 96
-77 272 -147 335 -135 31 6 116 97 116 123 0 11 4 21 9 24 4 3 6 -6 3 -20 -6
-35 -97 -131 -130 -138 -57 -13 -234 55 -345 133 -98 68 -205 207 -247 318
-34 91 -47 111 -85 123 -46 15 -46 31 0 19 19 -6 40 -7 45 -4 6 3 10 1 10 -4
0 -22 20 -10 21 12 0 21 1 21 9 2 5 -11 9 -23 9 -27z m2681 -128 c0 -5 -4 -10
-9 -10 -6 0 -13 5 -16 10 -3 6 1 10 9 10 9 0 16 -4 16 -10z m55 -8 c-3 -3 -11
0 -18 7 -9 10 -8 11 6 5 10 -3 15 -9 12 -12z m2 -28 c-3 -3 -12 -4 -19 -1 -8
3 -5 6 6 6 11 1 17 -2 13 -5z m-172 -14 c3 -5 2 -10 -4 -10 -5 0 -13 5 -16 10
-3 6 -2 10 4 10 5 0 13 -4 16 -10z m150 -60 c3 -6 -1 -7 -9 -4 -18 7 -21 14
-7 14 6 0 13 -4 16 -10z m2933 -69 c16 -9 16 -10 0 -16 -23 -9 -81 -2 -85 10
-4 13 64 18 85 6z m-4921 -43 c-3 -7 -5 -2 -5 12 0 14 2 19 5 13 2 -7 2 -19 0
-25z m1836 5 c-7 -2 -19 -2 -25 0 -7 3 -2 5 12 5 14 0 19 -2 13 -5z m-1830
-88 c-3 -9 -8 -14 -10 -11 -3 3 -2 9 2 15 9 16 15 13 8 -4z m1667 -135 c0 -5
-4 -10 -9 -10 -6 0 -13 5 -16 10 -3 6 1 10 9 10 9 0 16 -4 16 -10z m423 -27
c-7 -2 -19 -2 -25 0 -7 3 -2 5 12 5 14 0 19 -2 13 -5z m-46 -28 c0 -8 -4 -15
-9 -15 -4 0 -8 7 -8 15 0 8 4 15 8 15 5 0 9 -7 9 -15z m2638 5 c3 -5 0 -10 -8
-10 -8 0 -25 -9 -39 -19 -24 -19 -24 -19 -36 0 -7 10 -12 22 -12 26 0 12 88
15 95 3z m-2598 -24 c-5 -12 2 -14 31 -10 31 4 33 3 14 -6 -12 -5 -25 -16 -28
-24 -3 -8 -19 -19 -36 -25 -38 -13 -48 -14 -28 -1 12 8 11 10 -7 10 -12 0 -25
-4 -28 -10 -3 -5 -13 -10 -21 -10 -8 0 -13 4 -10 9 4 5 0 12 -6 15 -7 2 -4 4
7 4 48 -2 85 3 85 12 0 5 -14 7 -32 4 -31 -6 -31 -5 12 19 54 31 53 31 47 13z
m379 -33 c25 -19 26 -22 9 -23 -17 0 -17 -2 -5 -10 20 -13 31 -12 28 1 -2 6 3
14 11 17 8 2 11 0 7 -6 -3 -6 0 -13 6 -16 10 -5 10 -7 0 -12 -10 -5 -10 -9 -1
-20 9 -11 8 -14 -2 -14 -8 -1 -3 -7 11 -15 l25 -14 -33 1 c-18 1 -35 -2 -39
-5 -3 -4 7 -7 23 -7 17 0 34 -4 40 -9 17 -17 170 -18 159 -2 -3 6 7 6 27 0 18
-5 34 -9 35 -9 2 0 3 -4 3 -8 0 -5 -13 -7 -29 -4 -33 5 -48 -12 -30 -34 16
-19 5 -29 -12 -11 -8 7 -16 14 -19 15 -3 0 -18 6 -34 12 -19 7 -32 7 -41 0
-14 -12 -115 -10 -115 2 0 4 8 8 18 9 9 0 2 5 -17 10 -18 6 -43 19 -54 30 -12
11 -26 18 -32 16 -5 -2 -19 -1 -30 3 -11 4 -26 3 -33 -3 -7 -5 -16 -7 -19 -3
-4 4 -1 11 7 16 8 6 11 10 5 10 -5 1 4 8 20 17 25 15 27 18 11 21 -15 3 -16 6
-5 13 11 7 11 9 -2 9 -23 0 -33 29 -13 37 8 3 13 11 10 18 -7 19 73 -5 110
-32z m-736 15 c0 -13 -23 -5 -28 10 -2 7 2 10 12 6 9 -3 16 -11 16 -16z m-39
-5 c13 -15 12 -15 -8 -4 -24 12 -29 21 -14 21 5 0 15 -7 22 -17z m-6 -31 c-3
-3 -11 0 -18 7 -9 10 -8 11 6 5 10 -3 15 -9 12 -12z m2945 -34 c0 -15 -27 -8
-44 11 -17 18 -17 20 1 29 14 9 20 6 30 -11 7 -12 12 -25 13 -29z m-5430 2 c8
-5 11 -10 5 -10 -5 0 -17 5 -25 10 -8 5 -10 10 -5 10 6 0 17 -5 25 -10z m2900
0 c0 -5 -7 -7 -15 -4 -8 4 -15 8 -15 10 0 2 7 4 15 4 8 0 15 -4 15 -10z m-70
-9 c0 -5 -7 -11 -14 -14 -10 -4 -13 -1 -9 9 6 15 23 19 23 5z m-345 -11 c-3
-5 -12 -10 -18 -10 -7 0 -6 4 3 10 19 12 23 12 15 0z m-1968 -16 c-3 -3 -12
-4 -19 -1 -8 3 -5 6 6 6 11 1 17 -2 13 -5z m4833 -18 c0 -11 -19 -15 -25 -6
-3 5 1 10 9 10 9 0 16 -2 16 -4z m-2260 -10 c0 -2 -9 -6 -20 -9 -11 -3 -20 -1
-20 4 0 5 9 9 20 9 11 0 20 -2 20 -4z m183 -43 c-7 -2 -19 -2 -25 0 -7 3 -2 5
12 5 14 0 19 -2 13 -5z m282 -13 c18 -8 17 -9 -7 -9 -15 -1 -30 4 -33 9 -7 12
12 12 40 0z m-280 -20 c3 -5 -1 -10 -10 -10 -9 0 -13 5 -10 10 3 6 8 10 10 10
2 0 7 -4 10 -10z m-923 -62 c-6 -6 -15 -8 -19 -4 -4 4 -1 11 7 16 19 12 27 3
12 -12z m598 -82 c0 -6 16 -25 37 -43 38 -34 87 -49 127 -39 28 7 68 -24 73
-57 2 -12 17 -45 34 -75 17 -30 29 -61 27 -70 -4 -21 63 -62 101 -62 15 0 32
-5 39 -12 7 -7 12 -9 12 -4 0 4 12 -2 26 -13 15 -12 33 -21 40 -21 7 0 25 -11
40 -25 15 -14 29 -23 32 -21 11 11 -10 56 -40 85 l-33 32 45 -6 c25 -3 61 -8
80 -11 26 -3 31 -2 20 5 -9 7 -10 11 -3 11 6 0 18 -7 26 -15 8 -8 17 -12 20
-9 2 3 22 -6 42 -21 21 -14 49 -25 62 -25 13 0 55 -5 94 -11 l69 -12 0 -53 c0
-30 -1 -54 -3 -54 -1 0 -27 9 -57 19 -55 19 -55 19 -76 0 -18 -17 -36 -20
-107 -20 -53 -1 -95 -6 -112 -15 -15 -8 -40 -14 -56 -14 -17 0 -37 -10 -51
-24 -13 -13 -32 -26 -43 -29 -19 -4 -19 -5 1 -6 25 -1 39 -37 18 -45 -8 -3
-19 -17 -26 -31 -8 -17 -17 -24 -29 -20 -28 9 -46 -31 -23 -50 19 -16 21 -49
4 -62 -13 -10 -13 -13 3 -30 9 -11 17 -29 17 -40 0 -12 5 -23 12 -25 9 -3 7
-14 -5 -40 -21 -44 -21 -57 -1 -96 17 -36 50 -45 41 -12 -3 11 -4 20 -2 20 2
0 10 3 18 6 10 4 15 -1 14 -13 -1 -10 -5 -20 -9 -23 -15 -12 -18 -56 -5 -75
13 -16 17 -17 31 -6 14 12 15 10 9 -20 -3 -19 -10 -35 -15 -37 -4 -2 -8 -8 -8
-13 0 -6 5 -7 10 -4 6 3 10 1 10 -4 0 -6 14 -9 33 -7 17 3 37 5 44 5 13 1 6
32 -10 42 -12 9 1 31 14 24 5 -4 9 -3 10 2 0 4 2 20 3 35 1 15 9 35 19 46 9
10 17 26 17 35 0 9 8 18 18 19 9 0 22 2 29 2 22 2 121 104 125 128 2 13 9 22
16 21 6 -2 12 6 12 17 0 11 10 28 21 38 12 9 31 27 42 39 11 12 24 20 29 17 4
-3 7 7 7 23 -1 17 -3 21 -6 10 -2 -9 -8 -15 -13 -12 -5 3 -2 19 7 35 17 35 23
39 16 10 -3 -11 0 -20 6 -20 6 0 11 5 11 12 0 6 3 8 6 5 4 -4 2 -12 -4 -19
-11 -14 -4 -71 8 -63 10 6 20 -97 20 -202 0 -129 -75 -431 -134 -538 -59 -107
-78 -139 -106 -180 -34 -51 -90 -145 -90 -152 0 -6 -60 -82 -81 -103 -24 -23
-56 -40 -63 -33 -12 12 -6 61 9 67 8 3 15 16 15 29 0 13 9 33 20 45 11 12 20
25 20 30 0 5 9 17 20 27 12 10 19 24 16 31 -2 6 0 16 6 22 12 12 1 89 -14 98
-5 3 -15 1 -21 -5 -18 -18 -37 -13 -37 10 0 16 -4 19 -17 14 -32 -13 -63 -18
-63 -9 0 38 22 129 32 135 7 4 10 11 6 14 -3 3 -13 -1 -21 -10 -19 -18 -36
-19 -60 0 -26 19 -14 69 24 96 35 24 38 43 6 37 -13 -2 -29 2 -36 10 -21 21 4
59 44 66 19 4 32 12 32 21 0 20 -27 19 -55 -1 -13 -9 -29 -13 -37 -11 -7 3
-16 -2 -20 -11 -6 -14 -9 -13 -17 8 l-11 25 -6 -25 c-5 -17 -9 -21 -15 -12
-10 16 2 52 17 49 8 -1 12 13 11 43 0 28 -4 44 -12 43 -6 -2 -22 8 -35 21 -22
22 -23 26 -10 50 12 23 25 32 36 24 2 -2 11 3 21 11 15 13 15 15 0 32 -15 17
-18 16 -52 -17 -31 -30 -38 -33 -50 -20 -8 8 -11 19 -7 26 6 9 10 9 17 -1 7
-11 8 -9 4 4 -3 10 -6 27 -6 38 0 16 -3 18 -19 9 -35 -18 -50 -3 -43 43 3 23
9 44 13 45 18 7 8 24 -11 19 -15 -4 -20 0 -20 14 0 10 4 19 9 19 9 0 31 75 31
104 0 22 -17 20 -22 -2 -8 -30 -54 -26 -77 7 -27 37 -26 41 7 68 24 20 25 22
7 23 -22 0 -41 19 -71 68 -19 33 -30 38 -53 23 -8 -5 -23 -3 -39 5 -14 7 -27
12 -29 10 -1 -1 2 -17 7 -36 10 -36 6 -55 -5 -21 -6 19 -41 38 -52 28 -3 -3
-29 5 -59 18 -97 43 -199 42 -219 -3 -5 -12 -13 -22 -18 -22 -4 0 -5 6 -1 13
4 6 3 9 -1 4 -5 -4 -18 1 -29 10 -21 19 39 -70 83 -123 14 -16 -7 4 -47 45
-41 42 -70 69 -66 61 13 -23 12 -33 -9 -63 -29 -42 -61 -72 -83 -75 -10 -2
-20 -5 -21 -6 -2 -1 33 -76 77 -167 44 -90 80 -168 80 -174 0 -5 -27 43 -60
108 -69 137 -87 164 -150 232 -26 28 -59 71 -73 97 -15 26 -33 53 -40 60 -60
67 -59 71 3 9 41 -42 74 -74 73 -72 -2 2 2 10 8 17 7 8 6 14 -2 20 -8 5 -9 3
-4 -6 6 -9 4 -11 -5 -5 -10 6 -9 11 5 22 11 7 22 13 26 13 12 0 17 38 6 49 -8
8 -7 11 2 11 7 0 10 4 7 9 -3 4 7 6 22 4 22 -4 19 0 -18 22 -142 86 -186 110
-271 147 -98 43 -121 56 -79 43 89 -25 350 -157 403 -203 9 -8 17 -10 17 -5 0
21 -118 120 -172 145 -31 15 -94 38 -142 53 -47 14 -88 30 -91 35 -3 6 57 -12
134 -39 106 -36 155 -59 198 -92 60 -45 103 -59 103 -33 0 8 5 14 10 14 6 0
18 16 27 35 9 19 23 35 30 35 8 0 12 4 8 9 -7 13 29 32 41 22 5 -4 23 -13 39
-19 67 -27 -11 21 -112 69 -134 63 -187 77 -314 82 -58 3 -115 10 -125 16 -21
13 72 9 221 -10 72 -10 254 -73 292 -102 7 -5 18 -5 24 -1 7 4 9 3 6 -3 -8
-13 20 -26 35 -16 7 3 8 1 4 -5 -3 -6 2 -15 12 -21 14 -7 19 -6 19 4 0 8 -3
13 -6 11 -3 -1 -17 8 -30 21 -16 15 -19 23 -10 23 12 0 12 2 0 9 -12 8 -12 12
-2 25 8 9 19 16 26 16 7 0 10 9 8 24 -4 20 0 24 32 29 48 8 69 25 54 43 -8 10
-8 14 0 14 6 0 11 6 11 14 0 15 37 32 47 22 4 -3 1 -6 -5 -6 -7 0 -12 -4 -12
-10 0 -17 20 -11 46 15 14 14 29 25 34 25 5 0 7 6 4 14 -3 8 2 16 13 19 29 7
63 3 63 -7z m-1708 -58 c-8 -8 -9 -4 -5 13 4 13 8 18 11 10 2 -7 -1 -18 -6
-23z m2298 2 c5 0 14 -9 20 -20 8 -15 6 -24 -10 -40 -11 -11 -29 -20 -40 -20
-11 0 -20 -4 -20 -10 0 -5 -7 -10 -15 -10 -8 0 -15 -4 -15 -8 0 -7 -26 -8 -66
-3 -5 0 -18 7 -28 14 -18 13 -17 15 10 43 16 16 40 30 54 31 43 2 64 9 68 22
2 7 11 10 19 7 8 -3 19 -6 23 -6z m-1142 -77 c6 -19 6 -33 1 -33 -5 0 -9 8 -9
18 0 9 -9 35 -20 57 -19 37 -20 38 -2 16 11 -14 24 -39 30 -58z m-355 50 c-7
-2 -21 -2 -30 0 -10 3 -4 5 12 5 17 0 24 -2 18 -5z m242 -22 c-14 -13 -82 -30
-90 -23 -3 4 13 11 37 18 57 15 64 16 53 5z m-132 -18 c-7 -2 -19 -2 -25 0 -7
3 -2 5 12 5 14 0 19 -2 13 -5z m497 -38 c0 -8 -7 -15 -15 -15 -13 0 -14 3 -3
15 16 18 18 18 18 0z m-42 -40 c-3 -3 -9 2 -12 12 -6 14 -5 15 5 6 7 -7 10
-15 7 -18z m-2178 -31 c-14 -9 -52 -42 -84 -73 -58 -55 -59 -55 -26 -12 34 44
104 101 124 101 6 0 -1 -7 -14 -16z m142 -136 c97 -116 131 -147 200 -183 56
-30 83 -38 123 -38 l52 0 16 -51 c12 -39 13 -54 4 -66 -10 -13 -10 -13 5 -2
14 11 18 10 28 -9 10 -18 9 -25 -10 -43 -20 -18 -22 -19 -16 -3 9 27 -2 39
-25 26 -19 -10 -20 -9 -9 11 11 21 11 21 -18 6 -17 -9 -33 -21 -36 -28 -3 -7
-3 -3 0 9 4 18 2 22 -10 17 -8 -3 -17 -13 -19 -22 -3 -10 -6 -3 -7 13 -1 29
-2 29 -12 8 -15 -30 -28 -29 -28 2 0 22 -3 24 -19 15 -14 -7 -21 -6 -24 3 -4
8 -12 4 -26 -13 l-21 -25 14 47 c11 38 11 46 0 41 -7 -2 -21 -25 -30 -49 -15
-40 -34 -59 -34 -34 0 6 4 10 8 10 5 0 9 6 10 13 0 6 5 29 10 50 6 20 8 37 6
37 -2 0 -20 -35 -40 -77 -37 -81 -58 -158 -52 -195 2 -13 12 12 23 60 10 45
22 82 27 82 4 0 5 -15 1 -32 -10 -50 -51 -165 -53 -148 -1 8 -6 -1 -11 -20 -4
-19 -14 -60 -22 -90 l-14 -55 -2 87 c0 52 7 130 19 192 16 84 19 118 11 168
-4 35 -9 51 -10 36 0 -15 -5 -29 -10 -32 -5 -3 -5 15 0 41 11 58 6 64 -16 17
-15 -33 -23 -67 -54 -244 l-9 -55 3 60 4 60 -19 -85 -19 -85 5 80 c2 44 8 103
11 130 7 50 7 50 14 15 l6 -35 2 36 c1 31 29 130 57 204 7 18 6 19 -11 5 -17
-13 -18 -13 -13 0 13 37 19 60 15 60 -11 0 -47 -87 -59 -140 -13 -62 -42 -112
-87 -153 -17 -16 -31 -34 -31 -40 0 -7 -9 -25 -20 -42 l-20 -30 0 28 c0 16 4
26 9 23 5 -3 11 1 15 9 7 19 6 19 -51 -9 -59 -29 -93 -40 -93 -29 0 4 27 19
61 33 71 29 84 45 131 165 36 90 46 125 53 186 3 18 14 42 25 53 23 24 27 8 6
-32 -7 -15 -16 -47 -20 -71 -4 -25 -18 -72 -31 -105 -13 -34 -27 -74 -31 -91
l-6 -30 30 32 c23 24 34 50 46 110 9 43 29 113 45 155 16 43 26 80 23 82 -9
10 -123 -78 -184 -143 -35 -36 -86 -87 -115 -113 -29 -25 -55 -59 -59 -74 -4
-15 -14 -36 -23 -47 -57 -70 -59 -67 -14 23 26 52 46 102 45 110 -3 13 -2 13
7 0 9 -12 27 3 101 82 77 82 198 184 222 187 4 1 26 -22 50 -51z m1098 32 c0
-5 -4 -10 -9 -10 -6 0 -13 5 -16 10 -3 6 1 10 9 10 9 0 16 -4 16 -10z m21 -49
c11 -27 -6 -19 -22 11 -8 16 -8 19 2 16 6 -2 16 -14 20 -27z m-1435 -54 c-36
-74 -48 -91 -43 -61 3 20 67 137 72 132 2 -2 -11 -34 -29 -71z m1819 15 c-3
-3 -11 0 -18 7 -9 10 -8 11 6 5 10 -3 15 -9 12 -12z m35 -48 c103 -74 174
-161 205 -254 13 -39 34 -88 46 -108 31 -52 -1 -18 -46 48 -20 30 -40 55 -43
54 -7 -1 -52 56 -52 65 0 3 14 -10 30 -29 l31 -35 -21 44 c-12 24 -23 52 -25
62 -8 41 -78 111 -172 174 -24 15 -43 29 -43 31 0 10 19 -1 90 -52z m21 25
l24 -20 -30 17 c-39 24 -40 24 -28 24 6 0 21 -9 34 -21z m-1722 -73 c-18 -36
-35 -64 -36 -62 -2 2 10 34 27 71 17 37 33 65 36 62 3 -3 -9 -35 -27 -71z
m1715 -101 c44 -60 86 -109 91 -108 14 3 37 -45 29 -59 -4 -7 -3 -8 4 -4 8 5
12 -1 12 -15 0 -12 22 -70 49 -128 27 -58 54 -131 60 -161 6 -30 20 -102 32
-160 19 -97 36 -301 24 -288 -3 3 -7 41 -9 84 -3 68 -31 236 -67 394 -12 52
-111 252 -144 292 -13 15 -38 53 -56 85 -18 32 -64 101 -101 153 -38 52 -55
79 -37 60 17 -19 68 -84 113 -145z m-133 98 c13 -16 12 -17 -3 -4 -10 7 -18
15 -18 17 0 8 8 3 21 -13z m-31 -59 c18 -26 28 -44 22 -40 -6 4 -26 28 -43 53
-42 60 -24 49 21 -13z m104 -36 c24 -42 18 -36 -29 27 -22 29 -28 41 -14 28
13 -12 33 -37 43 -55z m-330 16 c3 -8 2 -12 -4 -9 -6 3 -10 10 -10 16 0 14 7
11 14 -7z m816 -4 c0 -4 -7 -11 -16 -14 -13 -5 -14 -4 -6 7 7 8 8 18 4 22 -4
5 -1 5 6 1 6 -4 12 -11 12 -16z m-765 0 c3 -5 1 -10 -4 -10 -6 0 -11 5 -11 10
0 6 2 10 4 10 3 0 8 -4 11 -10z m41 -74 l15 -31 -21 25 c-11 14 -26 34 -32 45
-10 18 -10 19 6 6 10 -8 24 -28 32 -45z m215 -8 c31 -43 17 -34 -21 15 -19 23
-26 36 -17 28 10 -8 27 -27 38 -43z m-263 7 c-3 -3 -9 2 -12 12 -6 14 -5 15 5
6 7 -7 10 -15 7 -18z m353 -33 l30 -47 -31 35 c-36 40 -59 77 -41 66 6 -4 25
-28 42 -54z m42 -141 c32 -53 107 -208 107 -219 -1 -4 -25 40 -54 97 -30 57
-59 107 -64 110 -13 8 -92 122 -92 133 0 14 74 -72 103 -121z m-1203 115 c0
-2 -8 -10 -17 -17 -16 -13 -17 -12 -4 4 13 16 21 21 21 13z m1028 -21 c-3 -3
-9 2 -12 12 -6 14 -5 15 5 6 7 -7 10 -15 7 -18z m-1293 -15 c-9 -16 -18 -30
-21 -30 -2 0 2 14 11 30 9 17 18 30 21 30 2 0 -2 -13 -11 -30z m315 0 c0 -11
-4 -20 -10 -20 -5 0 -10 9 -10 20 0 11 5 20 10 20 6 0 10 -9 10 -20z m1341
-120 c21 -41 39 -82 39 -90 -1 -8 -17 17 -37 55 -19 39 -45 81 -58 95 -24 26
-45 63 -45 77 1 18 64 -67 101 -137z m-1615 82 c-10 -11 -16 -12 -16 -4 0 7 5
12 10 12 6 0 9 3 9 8 -3 16 3 26 8 14 3 -8 -2 -21 -11 -30z m55 15 c-10 -9
-11 -8 -5 6 3 10 9 15 12 12 3 -3 0 -11 -7 -18z m1235 -4 c11 -10 30 -31 42
-47 12 -16 22 -24 22 -19 0 6 -7 16 -15 23 -8 7 -15 19 -15 28 0 9 7 5 21 -12
12 -15 19 -35 16 -45 -2 -10 0 -27 5 -37 14 -28 -70 66 -88 99 -17 32 -14 34
12 10z m147 -15 c9 -31 2 -33 -11 -3 -6 14 -8 25 -3 25 5 0 11 -10 14 -22z
m-1836 -70 c-3 -8 -6 -5 -6 6 -1 11 2 17 5 13 3 -3 4 -12 1 -19z m2075 -40
c47 -71 78 -124 78 -134 0 -4 -24 30 -53 77 -71 113 -69 109 -64 109 2 0 20
-24 39 -52z m-663 -10 c1 -5 -3 -8 -9 -8 -5 0 -10 12 -9 28 0 24 1 25 9 7 5
-11 9 -23 9 -27z m-1272 10 c-3 -8 -6 -5 -6 6 -1 11 2 17 5 13 3 -3 4 -12 1
-19z m-150 -10 c-3 -8 -6 -5 -6 6 -1 11 2 17 5 13 3 -3 4 -12 1 -19z m140 -40
c-3 -7 -5 -2 -5 12 0 14 2 19 5 13 2 -7 2 -19 0 -25z m1672 -18 c0 -10 -3 -8
-9 5 -12 27 -12 43 0 25 5 -8 9 -22 9 -30z m3001 25 c0 -8 -4 -15 -10 -15 -5
0 -10 7 -10 15 0 8 5 15 10 15 6 0 10 -7 10 -15z m-4831 -52 c-5 -32 -13 -78
-19 -103 -8 -39 -9 -34 -5 35 6 86 13 125 25 125 3 0 3 -26 -1 -57z m149 -58
c0 -48 -2 -54 -8 -30 -11 43 -11 136 0 110 5 -11 8 -47 8 -80z m2002 -11 c16
-40 30 -81 30 -91 -1 -10 -12 13 -25 51 -14 38 -34 84 -45 103 -23 39 -26 57
-5 29 8 -10 28 -52 45 -92z m2660 86 c0 -5 -4 -10 -10 -10 -5 0 -10 5 -10 10
0 6 5 10 10 10 6 0 10 -4 10 -10z m-3113 -122 c-2 -18 -4 -6 -4 27 0 33 2 48
4 33 2 -15 2 -42 0 -60z m3070 25 c-2 -17 -9 -29 -20 -31 -22 -4 -22 16 0 40
21 24 22 23 20 -9z m-2762 -34 c15 -28 25 -55 23 -61 -4 -11 -42 54 -53 90
-11 38 4 24 30 -29z m224 -34 c0 -5 -6 1 -14 15 -8 14 -14 30 -14 35 0 6 6 -1
14 -15 8 -14 14 -29 14 -35z m-542 -27 c-3 -7 -5 -2 -5 12 0 14 2 19 5 13 2
-7 2 -19 0 -25z m170 -90 c-2 -13 -4 -3 -4 22 0 25 2 35 4 23 2 -13 2 -33 0
-45z m180 30 c-3 -7 -5 -2 -5 12 0 14 2 19 5 13 2 -7 2 -19 0 -25z m10 -55
c-3 -10 -5 -4 -5 12 0 17 2 24 5 18 2 -7 2 -21 0 -30z m-180 -80 c-2 -16 -4
-5 -4 22 0 28 2 40 4 28 2 -13 2 -35 0 -50z m1180 32 c8 -23 -4 -30 -21 -12
-8 8 -12 17 -9 21 11 11 23 7 30 -9z m-1170 -347 c-1 -46 -3 -9 -3 82 0 91 2
128 3 83 2 -46 2 -120 0 -165z m240 45 c-3 -10 -5 -4 -5 12 0 17 2 24 5 18 2
-7 2 -21 0 -30z m250 15 c-3 -8 -6 -5 -6 6 -1 11 2 17 5 13 3 -3 4 -12 1 -19z
m10 -60 c-3 -7 -5 -2 -5 12 0 14 2 19 5 13 2 -7 2 -19 0 -25z m2590 -38 c-1
-22 -8 -42 -16 -45 -11 -4 -11 -8 -1 -20 11 -13 11 -20 0 -40 -15 -28 -40 -41
-40 -20 0 8 -6 15 -13 15 -17 0 -16 40 3 70 9 14 21 37 28 53 18 43 42 35 39
-13z m-2860 -17 c-3 -10 -5 -2 -5 17 0 19 2 27 5 18 2 -10 2 -26 0 -35z m2919
-60 c-10 -10 -19 5 -10 18 6 11 8 11 12 0 2 -7 1 -15 -2 -18z m-2929 -15 c-3
-8 -6 -5 -6 6 -1 11 2 17 5 13 3 -3 4 -12 1 -19z m2269 -32 c18 -19 18 -30 -1
-46 -13 -10 -15 -9 -15 10 0 13 -8 29 -17 36 -17 13 -17 13 0 14 10 0 25 -6
33 -14z m556 -54 c-6 -2 -2 -12 10 -24 15 -15 19 -28 14 -52 -4 -17 -10 -32
-15 -34 -5 -2 -7 -12 -4 -23 4 -13 1 -19 -7 -17 -7 2 -15 -3 -18 -11 -3 -10 0
-12 11 -8 27 10 27 -7 2 -39 -13 -16 -24 -23 -25 -16 0 6 -6 12 -14 12 -12 0
-12 6 -3 35 7 25 7 39 0 46 -10 10 4 69 20 85 4 4 7 23 7 42 0 31 2 33 16 21
9 -8 12 -15 6 -17z m-503 -67 c-3 -76 -19 -110 -25 -52 -1 12 -7 40 -12 61
-13 48 -8 60 19 43 15 -9 19 -22 18 -52z m206 -80 c0 -10 -6 -20 -12 -22 -8
-3 -13 5 -13 22 0 17 5 25 13 23 6 -3 12 -13 12 -23z m890 -235 c3 -5 1 -10
-4 -10 -6 0 -11 5 -11 10 0 6 2 10 4 10 3 0 8 -4 11 -10z m-2509 -47 c-11 -11
-19 6 -11 24 8 17 8 17 12 0 3 -10 2 -21 -1 -24z m53 -41 c0 -15 -4 -36 -9
-47 -6 -15 -9 -6 -9 33 -1 33 3 51 9 47 6 -3 10 -18 9 -33z m2179 -84 c1 -8
-9 -20 -23 -26 -28 -13 -32 -4 -14 29 11 22 32 21 37 -3z m42 -36 c0 -5 -9
-18 -20 -30 -21 -23 -26 -47 -10 -57 18 -11 -15 -65 -41 -65 -19 0 -3 86 22
111 11 11 18 27 15 35 -3 9 1 14 14 14 11 0 20 -4 20 -8z m-2240 -82 c0 -11
-6 -20 -14 -20 -7 0 -16 9 -19 20 -4 15 0 20 14 20 12 0 19 -7 19 -20z m867
-17 c-9 -9 -20 -13 -24 -9 -4 4 -1 11 7 16 25 16 35 11 17 -7z m-820 -140 c-3
-10 -5 -2 -5 17 0 19 2 27 5 18 2 -10 2 -26 0 -35z m638 27 c3 -5 1 -10 -4
-10 -6 0 -11 5 -11 10 0 6 2 10 4 10 3 0 8 -4 11 -10z m35 6 c0 -3 -4 -8 -10
-11 -5 -3 -10 -1 -10 4 0 6 5 11 10 11 6 0 10 -2 10 -4z m1525 -17 c-10 -15
-25 -10 -19 6 4 8 10 12 15 9 5 -3 7 -10 4 -15z m-925 -28 c0 -5 -9 -11 -20
-14 -22 -6 -28 8 -7 16 19 8 27 8 27 -2z m150 -16 c0 -8 -7 -15 -16 -15 -8 0
-13 -4 -10 -8 3 -5 -5 -20 -17 -35 -16 -20 -28 -25 -44 -21 -13 4 -23 10 -23
15 0 5 -6 6 -14 3 -14 -5 -30 32 -20 48 7 11 44 10 44 -1 0 -5 21 -1 48 9 26
10 48 19 50 19 1 1 2 -6 2 -14z m130 6 c0 -5 -13 -19 -28 -30 -21 -15 -29 -28
-29 -52 0 -23 -7 -37 -26 -51 -15 -11 -27 -28 -27 -39 0 -10 -5 -19 -10 -19
-12 0 -11 88 1 96 4 2 5 13 2 23 -3 10 3 31 13 46 13 20 23 25 41 20 13 -3 23
-1 23 5 0 5 9 10 20 10 11 0 20 -4 20 -9z m661 -39 c-6 -11 -8 -36 -6 -55 4
-29 1 -39 -14 -47 -28 -14 -49 -14 -33 2 17 17 -5 53 -24 37 -8 -6 -14 -7 -14
-2 0 15 44 63 58 63 7 0 10 4 7 10 -3 6 1 7 9 4 10 -4 16 -1 16 7 0 7 3 10 6
7 3 -4 1 -15 -5 -26z m-2211 -27 c0 -14 -4 -25 -9 -25 -4 0 -6 11 -3 25 2 14
6 25 8 25 2 0 4 -11 4 -25z m650 1 c0 -3 -4 -8 -10 -11 -5 -3 -10 -1 -10 4 0
6 5 11 10 11 6 0 10 -2 10 -4z m760 -25 c0 -21 -13 -41 -26 -41 -17 0 -17 5
-2 30 13 21 28 27 28 11z m-360 -146 c0 -30 -19 -52 -34 -38 -17 17 6 89 25
78 5 -4 9 -21 9 -40z m0 -84 c0 -5 3 -16 6 -25 4 -11 1 -16 -10 -16 -10 0 -16
9 -16 25 0 14 5 25 10 25 6 0 10 -4 10 -9z m65 -129 c-8 -9 -25 20 -18 31 3 5
10 2 15 -7 6 -10 7 -20 3 -24z m-1802 -21 c27 -27 -223 -47 -743 -60 -321 -8
-360 -11 -405 -30 -27 -11 -43 -20 -35 -21 10 0 11 -3 4 -8 -20 -13 -34 -51
-40 -109 -9 -86 -5 -262 6 -283 6 -10 11 -36 12 -57 l1 -38 6 45 c14 99 36
-195 36 -470 0 -351 -16 -414 -139 -535 -68 -68 -112 -87 -198 -83 -57 2 -83
-2 -423 -63 -394 -71 -439 -80 -505 -94 -72 -17 -343 -61 -432 -70 -51 -6 -58
-5 -68 14 -13 26 -16 70 -6 93 5 12 4 18 -4 18 -6 0 -19 7 -28 17 -16 15 -12
16 53 10 39 -3 99 -15 134 -26 86 -27 91 -19 7 9 -36 12 -66 26 -66 31 0 5
-29 9 -64 9 -73 0 -96 6 -96 26 0 13 25 17 123 18 15 1 27 4 27 8 0 5 -36 8
-80 8 -67 0 -80 3 -80 16 0 14 9 16 73 10 39 -4 90 -12 112 -18 67 -18 525
-15 525 3 0 9 -39 10 -142 6 -79 -3 -134 -3 -124 2 12 5 -28 12 -108 20 -71 7
-130 10 -133 7 -3 -2 19 -7 49 -10 107 -12 111 -14 18 -10 -52 2 -133 8 -180
13 -47 5 -88 10 -92 10 -5 1 -8 8 -8 17 0 12 6 15 23 10 12 -4 108 -11 212
-16 105 -6 222 -14 260 -20 39 -5 108 -9 155 -8 l85 1 -105 12 c-58 6 -108 10
-112 8 -4 -2 -16 0 -25 6 -10 5 -67 14 -128 21 -193 20 -388 54 -393 69 -3 10
10 11 64 6 38 -4 77 -9 86 -11 24 -7 17 28 -8 37 -10 4 -46 8 -79 8 -67 1 -80
7 -88 36 -26 96 -82 268 -98 302 -18 41 -27 90 -11 67 11 -17 69 -32 149 -38
39 -3 84 -11 99 -16 15 -6 59 -13 98 -16 39 -3 116 -12 171 -20 55 -8 145 -19
200 -24 55 -4 138 -13 185 -18 47 -6 141 -16 210 -22 69 -6 175 -18 235 -27
139 -19 128 -17 143 -26 16 -10 16 -9 -7 81 -28 107 -74 368 -111 622 -17 118
-37 256 -45 306 -20 121 -20 200 0 208 28 11 195 16 785 27 327 6 667 15 755
19 170 8 294 5 308 -9z m172 -330 c62 -34 144 -63 157 -55 5 3 14 1 21 -4 7
-5 46 -15 87 -22 41 -6 100 -18 130 -27 40 -11 74 -13 125 -8 120 12 129 12
149 5 14 -5 3 -9 -35 -14 -30 -3 -91 -12 -136 -19 -46 -8 -83 -10 -83 -7 0 4
-62 8 -137 9 -145 1 -166 3 -198 16 -21 9 -65 54 -65 67 0 4 -12 14 -27 22
-16 8 -39 26 -53 39 -14 13 -32 27 -40 30 -8 4 1 4 20 1 19 -4 58 -18 85 -33z
m2364 -81 c9 0 22 -5 28 -11 15 -15 56 -18 66 -4 4 6 10 5 16 -4 5 -7 14 -10
20 -7 6 4 14 1 16 -7 5 -11 40 -16 53 -7 7 6 60 2 70 -4 7 -4 19 -5 27 -2 10
4 15 -1 15 -14 0 -11 -4 -20 -10 -20 -5 0 -10 4 -10 9 0 6 -12 6 -30 0 -16 -6
-30 -16 -30 -22 0 -7 -5 -5 -10 3 -5 8 -10 20 -10 25 0 6 5 3 10 -5 5 -8 10
-10 10 -4 0 16 -10 23 -25 17 -8 -3 -11 -12 -7 -21 5 -15 4 -15 -21 1 -32 20
-41 22 -34 4 3 -8 1 -20 -5 -28 -8 -11 -9 -11 -5 3 4 12 -2 18 -23 23 -16 4
-35 3 -42 -1 -7 -5 -34 -9 -60 -10 -35 -1 -45 2 -41 12 3 8 9 14 13 14 4 0 8
12 8 26 0 14 -3 22 -7 18 -3 -5 -22 -10 -41 -11 -35 -2 -35 -2 -8 8 24 9 27
15 22 37 l-6 27 16 -22 c10 -13 25 -23 35 -23z m66 -10 c-3 -5 -12 -7 -20 -3
-21 7 -19 13 6 13 11 0 18 -4 14 -10z m-1555 -25 c14 -8 42 -14 62 -15 39 0
150 -42 183 -70 11 -9 33 -24 48 -34 27 -16 29 -16 57 4 24 17 30 18 30 6 0
-8 -7 -22 -16 -30 -14 -15 -14 -16 4 -16 11 0 22 7 26 15 5 15 36 21 36 7 0
-4 15 -14 33 -22 23 -11 27 -15 15 -18 -25 -5 -23 -22 2 -22 11 0 20 -4 20
-10 0 -5 9 -10 20 -10 11 0 20 -4 20 -9 0 -5 9 -11 20 -14 30 -8 34 -33 11
-56 -26 -26 -47 -22 -148 25 -71 33 -136 44 -148 24 -3 -5 -15 -10 -25 -10
-12 0 -26 -13 -35 -30 -15 -30 -38 -39 -50 -20 -8 13 -55 13 -55 -1 0 -5 -5
-7 -10 -4 -6 4 -16 2 -23 -3 -7 -5 -29 -7 -49 -5 -33 5 -36 7 -27 24 12 23 3
25 -17 4 -17 -17 -34 -20 -34 -5 0 5 -7 7 -15 4 -8 -4 -15 -1 -15 5 0 6 7 11
15 11 8 0 15 9 15 20 0 11 -4 20 -10 20 -5 0 -10 7 -10 15 0 8 -3 15 -7 15
-24 -1 -99 -23 -110 -32 -7 -6 -30 -11 -52 -12 -29 -2 -47 -10 -70 -33 -17
-17 -31 -36 -31 -42 0 -15 -17 -14 -23 2 -4 7 -20 -4 -44 -32 -31 -34 -44 -42
-60 -37 -15 5 -30 -2 -57 -27 -20 -19 -36 -39 -36 -45 0 -7 -8 -9 -17 -5 -10
3 -15 3 -11 -2 10 -11 -11 -37 -24 -29 -5 3 -8 -2 -6 -12 2 -13 -4 -20 -19
-22 -26 -4 -103 -89 -103 -114 0 -18 -33 -42 -44 -31 -3 3 -6 -3 -6 -15 0 -12
5 -22 10 -22 6 0 -4 -16 -21 -35 -18 -19 -40 -35 -49 -35 -9 0 -31 -18 -49
-40 -28 -35 -30 -43 -20 -62 7 -13 15 -25 18 -28 11 -9 31 -49 31 -62 0 -6 -6
-4 -13 7 -13 17 -14 17 -20 -5 -3 -12 -11 -20 -19 -18 -15 6 -11 40 5 50 9 5
9 10 0 19 -13 13 -42 6 -69 -19 -25 -23 -96 -56 -112 -53 -8 1 -20 -3 -27 -9
-11 -9 -16 -7 -24 9 -10 18 -14 19 -44 7 -17 -8 -61 -17 -97 -21 -36 -4 -93
-13 -128 -21 -35 -8 -67 -14 -73 -14 -18 0 -8 15 24 36 17 12 96 76 174 142
87 73 176 139 226 166 46 25 94 58 107 73 14 15 18 22 10 16 -8 -6 -38 -20
-65 -31 -28 -11 -67 -28 -87 -36 -37 -16 -38 -16 -38 5 0 14 31 51 88 105 66
65 110 97 187 137 138 72 138 72 129 44 -6 -21 -5 -20 23 6 16 15 32 27 36 27
8 0 129 91 139 105 4 6 8 6 8 1 0 -4 15 3 34 18 19 14 38 26 43 26 5 0 25 11
45 25 20 13 56 32 79 41 88 32 199 89 199 101 0 7 -10 18 -22 25 -22 12 -21
13 17 19 69 11 109 9 135 -6z m1144 3 c-2 -4 10 -7 28 -7 47 0 68 -3 63 -11
-2 -4 14 -14 36 -24 21 -10 37 -21 34 -26 -6 -10 -85 10 -85 22 0 5 -4 6 -10
3 -5 -3 -20 0 -32 8 -13 7 -42 13 -66 12 -45 -1 -65 -17 -59 -46 4 -16 -18
-19 -40 -6 -6 4 -11 1 -10 -6 0 -6 -1 -21 -2 -32 -2 -19 -3 -19 -10 -1 -7 19
-8 19 -28 -1 -12 -12 -25 -18 -29 -15 -4 4 -4 -1 -1 -10 4 -12 1 -18 -9 -18
-8 0 -13 -4 -9 -9 3 -5 0 -13 -6 -17 -8 -4 -9 -3 -5 4 4 7 2 12 -4 12 -19 0
-40 28 -34 45 4 10 2 15 -7 13 -7 -2 -15 5 -17 16 -2 10 0 16 6 12 6 -4 8 2 5
14 -4 13 1 22 13 26 25 8 64 24 86 35 24 12 28 11 28 -8 0 -16 1 -16 13 1 9
13 23 16 60 13 26 -2 47 0 47 4 0 4 11 6 24 5 13 0 22 -4 20 -8z m621 -58 c3
-5 1 -10 -4 -10 -6 0 -11 5 -11 10 0 6 2 10 4 10 3 0 8 -4 11 -10z m-426 -34
c10 -7 12 -5 6 5 -6 11 -5 11 4 3 10 -9 10 -17 1 -35 -12 -22 -13 -22 -26 -4
-8 10 -14 22 -14 26 0 4 -8 5 -19 2 -10 -3 -21 -1 -24 4 -7 11 54 10 72 -1z
m51 -15 c0 -5 -7 -11 -15 -15 -15 -5 -20 5 -8 17 9 10 23 9 23 -2z m77 -7 c-3
-3 -12 -4 -19 -1 -8 3 -5 6 6 6 11 1 17 -2 13 -5z m87 -4 c3 -3 -5 -6 -19 -5
-13 0 -26 2 -29 5 -3 3 5 6 19 5 13 0 26 -2 29 -5z m-111 -27 c-6 -16 -23 -17
-23 -2 0 5 -4 7 -10 4 -5 -3 -10 -2 -10 3 0 6 11 9 24 8 14 0 22 -6 19 -13z
m-115 -28 c-3 -3 -9 2 -12 12 -6 14 -5 15 5 6 7 -7 10 -15 7 -18z m190 -12
c-6 -7 -18 -12 -27 -12 -13 1 -13 2 2 6 13 3 16 10 11 25 -5 18 -4 19 9 7 11
-10 12 -18 5 -26z m-652 -12 c16 13 30 6 19 -10 -6 -10 -45 -16 -45 -7 0 2 -3
13 -6 23 -5 17 -5 17 6 0 9 -14 15 -16 26 -6z m575 2 c13 -16 12 -17 -3 -4
-10 7 -18 15 -18 17 0 8 8 3 21 -13z m-411 -3 c0 -5 -10 -10 -22 -9 -22 0 -22
1 -3 9 11 5 21 9 23 9 1 1 2 -3 2 -9z m-325 -11 c17 -8 16 -9 -7 -6 -35 5 -36
-5 -3 -23 32 -17 25 -24 -14 -15 -32 7 -39 23 -19 43 14 14 16 14 43 1z m490
-9 c3 -5 1 -10 -4 -10 -6 0 -11 5 -11 10 0 6 2 10 4 10 3 0 8 -4 11 -10z m135
-5 c0 -2 -9 -3 -19 -2 -11 0 -18 5 -15 9 4 6 34 0 34 -7z m-145 -24 c-6 -5
-25 10 -25 20 0 5 6 4 14 -3 8 -7 12 -15 11 -17z m90 19 c3 -6 -1 -7 -9 -4
-18 7 -21 14 -7 14 6 0 13 -4 16 -10z m-435 -10 c0 -5 -2 -10 -4 -10 -3 0 -8
5 -11 10 -3 6 -1 10 4 10 6 0 11 -4 11 -10z m687 -15 c0 -6 -6 -12 -12 -12 -6
0 -12 6 -12 12 0 6 6 12 12 12 6 0 12 -6 12 -12z m-254 -10 c4 -8 1 -17 -6
-21 -7 -4 -9 -4 -5 1 4 4 3 14 -3 22 -7 8 -8 13 -1 13 5 0 12 -7 15 -15z m26
1 c9 -11 9 -16 -1 -22 -7 -4 -10 -4 -6 1 4 4 3 14 -3 22 -6 7 -9 13 -6 13 2 0
10 -6 16 -14z m548 8 c-3 -3 -12 -4 -19 -1 -8 3 -5 6 6 6 11 1 17 -2 13 -5z
m83 -14 c0 -5 -4 -10 -9 -10 -6 0 -13 5 -16 10 -3 6 1 10 9 10 9 0 16 -4 16
-10z m-690 -52 c0 -6 8 -20 18 -31 12 -14 13 -18 2 -11 -8 4 -22 7 -32 6 -9
-2 -19 1 -22 7 -3 5 3 7 14 4 18 -5 19 -3 10 21 -6 18 -6 25 0 21 6 -3 10 -11
10 -17z m-1340 2 c0 -5 -10 -10 -22 -10 -19 0 -20 2 -8 10 19 13 30 13 30 0z
m-1980 -81 c40 -98 106 -163 163 -161 34 1 37 -1 26 -15 -11 -13 -10 -17 4
-28 17 -12 15 -15 -17 -40 -36 -28 -97 -54 -127 -55 -20 0 -47 58 -59 130 -5
30 -16 93 -24 138 -13 72 -13 122 0 109 2 -2 17 -37 34 -78z m4054 55 c5 -14
4 -15 -9 -4 -17 14 -19 20 -6 20 5 0 12 -7 15 -16z m-2060 -23 c6 -9 -34 -61
-47 -61 -14 0 -7 41 8 46 8 4 12 10 9 15 -3 5 2 9 10 9 8 0 17 -4 20 -9z m36
-1 c0 -5 -5 -10 -11 -10 -5 0 -7 5 -4 10 3 6 8 10 11 10 2 0 4 -4 4 -10z
m1937 4 c-3 -3 -12 -4 -19 -1 -8 3 -5 6 6 6 11 1 17 -2 13 -5z m-3457 -38 c0
-2 -7 -17 -15 -32 -8 -16 -15 -37 -15 -46 0 -9 -4 -20 -10 -23 -5 -3 -10 -19
-10 -35 0 -16 -4 -31 -9 -35 -5 -3 -12 -18 -16 -33 -3 -15 -16 -34 -28 -41
-19 -13 -21 -12 -10 1 23 27 1 28 -34 1 -18 -14 -37 -23 -40 -19 -13 12 -11
35 3 47 8 6 14 8 14 3 0 -23 74 109 84 149 9 37 36 65 64 66 12 1 22 -1 22 -3z
m3445 -6 c-3 -5 -12 -10 -18 -10 -7 0 -6 4 3 10 19 12 23 12 15 0z m46 -27
c13 -16 12 -17 -3 -4 -17 13 -22 21 -14 21 2 0 10 -8 17 -17z m-61 -17 c-7 -7
-13 -7 -20 0 -6 6 -3 10 10 10 13 0 16 -4 10 -10z m55 -5 c3 -5 2 -12 -3 -15
-5 -3 -9 1 -9 9 0 17 3 19 12 6z m-952 -64 c4 3 7 0 7 -8 0 -12 2 -11 11 1 9
13 10 13 6 0 -2 -8 6 -34 19 -58 20 -36 21 -41 6 -33 -9 5 -26 20 -37 33 l-20
23 23 -19 c34 -29 26 -6 -13 37 -19 21 -35 41 -35 45 0 4 7 -1 14 -10 7 -10
16 -15 19 -11z m-2548 -17 c-5 -8 -11 -8 -17 -2 -6 6 -7 16 -3 22 5 8 11 8 17
2 6 -6 7 -16 3 -22z m2492 -6 c24 -4 28 -14 6 -14 -11 0 -28 10 -39 22 -18 21
-18 22 0 8 10 -8 25 -15 33 -16z m-46 -1 c13 -16 12 -17 -3 -4 -10 7 -18 15
-18 17 0 8 8 3 21 -13z m-234 -2 c10 -1 10 -9 -1 -38 -8 -21 -17 -50 -20 -65
-5 -20 -11 -26 -24 -22 -14 5 -15 4 -2 -5 13 -9 13 -12 -2 -28 -17 -16 -18
-16 -18 0 0 21 -13 22 -29 3 -28 -34 -131 -27 -131 9 0 7 -4 15 -10 17 -10 3
9 80 23 94 26 26 124 42 214 35z m283 -56 c0 -2 -8 -1 -17 2 -16 6 -16 5 -4
-10 9 -11 10 -17 2 -17 -6 0 -11 3 -12 8 0 4 -2 15 -4 24 -3 15 0 16 16 8 10
-6 19 -13 19 -15z m50 -5 c0 -5 -2 -10 -4 -10 -3 0 -8 5 -11 10 -3 6 -1 10 4
10 6 0 11 -4 11 -10z m-30 -20 c0 -5 -2 -10 -4 -10 -3 0 -8 5 -11 10 -3 6 -1
10 4 10 6 0 11 -4 11 -10z m-35 -30 c12 -19 -12 -10 -31 11 -19 22 -19 22 3
10 12 -6 25 -16 28 -21z m30 2 c-3 -3 -11 0 -18 7 -9 10 -8 11 6 5 10 -3 15
-9 12 -12z m83 -22 c12 -26 15 -36 6 -29 -11 9 -14 8 -14 -1 0 -9 -7 -7 -20 5
-23 21 -19 35 5 15 18 -15 19 -11 5 24 -15 39 -5 31 18 -14z m51 19 c4 -12 2
-12 -12 0 -10 8 -17 9 -17 3 0 -6 5 -14 10 -17 6 -3 10 -11 10 -17 0 -5 -9 0
-19 13 -14 17 -16 26 -8 31 16 10 30 5 36 -13z m-119 -20 c0 -7 8 -18 18 -25
9 -7 12 -14 6 -14 -6 0 -20 11 -32 25 -17 19 -18 25 -7 25 8 0 15 -5 15 -11z
m-12 -35 c1 -1 -5 -4 -15 -6 -13 -4 -19 0 -19 13 0 14 3 16 16 6 8 -6 16 -12
18 -13z m-1588 -18 c0 -7 -9 -16 -20 -19 -23 -6 -26 3 -8 21 16 16 28 15 28
-2z m1184 -31 c-26 -18 -29 -11 -7 14 10 12 19 17 21 11 2 -6 -4 -17 -14 -25z
m426 25 c0 -5 -2 -10 -4 -10 -3 0 -8 5 -11 10 -3 6 -1 10 4 10 6 0 11 -4 11
-10z m330 -15 c13 -14 21 -25 18 -25 -2 0 -15 11 -28 25 -13 14 -21 25 -18 25
2 0 15 -11 28 -25z m55 -23 c-3 -3 -18 7 -33 23 l-27 28 33 -23 c18 -12 31
-25 27 -28z m-2075 28 c0 -5 -2 -10 -4 -10 -3 0 -8 5 -11 10 -3 6 -1 10 4 10
6 0 11 -4 11 -10z m1667 -22 c-3 -8 -6 -5 -6 6 -1 11 2 17 5 13 3 -3 4 -12 1
-19z m-499 -20 c-3 -22 -72 -68 -102 -68 -8 0 -19 -13 -26 -29 -6 -16 -19 -32
-28 -35 -9 -3 -30 -14 -47 -25 -16 -10 -33 -16 -38 -14 -4 3 -6 1 -5 -4 3 -9
-70 -83 -82 -83 -4 0 -13 -7 -20 -15 -17 -20 -32 -19 -28 1 2 10 -3 19 -9 21
-9 3 -13 -6 -13 -26 0 -32 -16 -41 -38 -19 -9 9 -15 8 -27 -8 -8 -10 -15 -14
-15 -9 0 7 -15 9 -36 7 -26 -3 -35 -1 -30 7 4 6 15 11 26 11 11 0 20 10 24 25
4 15 11 22 19 19 22 -8 62 12 104 53 22 21 65 54 95 73 31 19 58 43 61 53 4
14 11 16 31 11 17 -4 26 -2 26 6 0 19 27 40 52 41 13 0 39 7 58 14 48 19 52
18 48 -7z m842 -13 c0 -22 -15 -26 -36 -10 -10 8 -14 15 -8 15 5 0 16 -6 23
-12 11 -11 11 -9 2 9 -10 19 -9 22 4 17 8 -4 15 -12 15 -19z m-1992 -6 c16
-25 5 -41 -12 -17 -8 11 -17 14 -27 7 -19 -12 -69 -12 -69 0 0 8 25 16 90 30
3 1 11 -8 18 -20z m2428 9 c4 -7 3 -8 -4 -4 -8 5 -12 -2 -12 -18 0 -14 -4 -26
-9 -26 -10 0 -7 32 4 50 8 13 12 13 21 -2z m-9393 -32 c10 -25 0 -51 -17 -48
-19 3 -22 -23 -3 -35 8 -5 2 -10 -18 -13 -31 -6 -55 -3 -55 9 0 12 47 61 59
61 6 0 11 9 11 20 0 23 15 27 23 6z m8677 -16 c0 -5 -7 -7 -15 -4 -8 4 -12 10
-9 15 6 11 24 2 24 -11z m233 -55 c-7 -20 -17 -19 -34 2 -12 15 -12 16 4 10 9
-3 17 -2 17 4 0 6 4 8 10 4 5 -3 7 -12 3 -20z m-2046 -19 c-4 -9 -12 -16 -19
-16 -10 0 -10 2 1 9 9 6 10 11 2 15 -6 4 -8 12 -5 18 10 15 28 -8 21 -26z
m1618 -23 c10 -13 9 -23 -7 -50 -11 -18 -23 -33 -27 -33 -4 0 -17 -17 -29 -38
-21 -38 -62 -82 -62 -67 0 4 -11 0 -25 -9 -14 -9 -52 -18 -84 -20 -33 -2 -69
-7 -80 -11 -40 -12 -22 24 46 95 37 39 75 70 83 70 8 0 32 9 53 20 20 11 44
20 54 20 9 0 13 3 9 7 -3 4 6 12 21 19 37 16 34 16 48 -3z m-8492 -55 c8 -5 6
-8 -7 -8 -12 0 -16 -5 -12 -16 3 -8 -1 -22 -9 -30 -13 -14 -15 -13 -15 3 0 15
-2 16 -10 3 -7 -11 -10 -11 -10 -2 0 7 9 22 20 34 22 24 26 38 10 38 -5 0 -7
7 -3 17 5 13 8 12 15 -8 5 -13 14 -27 21 -31z m50 -28 c-3 -11 -9 -23 -14 -26
-10 -6 -12 29 -2 39 13 13 21 7 16 -13z m-23 -85 c10 -3 21 -12 24 -20 4 -12
-4 -15 -39 -15 -25 0 -45 2 -45 5 0 2 8 21 18 41 14 31 18 34 20 16 2 -12 12
-24 22 -27z m3770 4 c58 -7 98 -15 89 -17 -26 -5 -251 26 -261 36 -7 7 3 8 28
2 22 -4 86 -14 144 -21z m3757 -4 c-5 -11 0 -13 22 -9 20 4 30 1 34 -10 4 -10
1 -13 -7 -10 -8 3 -17 1 -20 -5 -4 -6 -25 -15 -48 -22 -23 -6 -47 -17 -55 -25
-8 -8 -23 -14 -34 -14 -13 0 -19 -7 -19 -24 0 -21 -6 -25 -32 -28 -22 -2 -32
-8 -30 -17 3 -14 -28 -42 -40 -35 -4 2 -14 -9 -24 -24 -13 -24 -23 -29 -52
-28 -30 1 -37 -4 -51 -32 -10 -21 -26 -35 -42 -38 -14 -3 -50 -28 -80 -56 -30
-27 -67 -59 -83 -71 -15 -12 -40 -32 -53 -44 -32 -28 -43 -29 -43 -3 0 11 4
20 9 20 5 0 12 11 15 24 12 49 194 217 304 281 10 5 29 17 44 27 15 10 36 18
47 18 13 0 18 5 15 14 -4 10 7 15 39 20 33 5 46 12 50 26 4 15 14 20 36 20 17
0 31 4 31 9 0 5 11 12 25 15 14 4 28 13 31 21 4 8 8 15 11 15 3 0 3 -7 0 -15z
m569 -110 c-10 -8 -24 -11 -30 -7 -7 4 -2 8 12 10 12 2 22 8 22 14 0 6 3 8 7
4 5 -4 -1 -14 -11 -21z m-8398 -21 c-4 -3 -12 5 -18 18 -12 22 -12 22 6 6 10
-10 15 -20 12 -24z m39 -46 c-3 -7 -5 -2 -5 12 0 14 2 19 5 13 2 -7 2 -19 0
-25z m-20 -10 c-3 -7 -5 -2 -5 12 0 14 2 19 5 13 2 -7 2 -19 0 -25z m7143 -8
c0 -6 -11 -16 -25 -22 -14 -6 -25 -15 -25 -20 0 -4 -5 -8 -11 -8 -5 0 -8 4 -4
9 3 5 1 12 -5 16 -19 12 -10 24 23 28 17 2 35 5 40 5 4 1 7 -3 7 -8z m-835
-31 c116 -11 251 -24 300 -28 96 -8 97 -7 -30 -37 -87 -21 -215 -85 -325 -163
-161 -114 -163 -115 -359 -108 -187 7 -341 28 -377 52 -28 18 -26 36 8 92 44
74 195 173 303 199 76 19 247 16 480 -7z m740 -10 c8 -25 1 -34 -20 -26 -19 8
-20 47 -1 47 8 0 18 -9 21 -21z m-6989 -616 c4 -13 4 -62 2 -109 -2 -46 -3
-84 -2 -84 3 0 76 41 83 47 3 2 -4 10 -16 18 -21 15 -50 72 -40 81 3 3 23 -4
45 -15 63 -32 75 -99 26 -142 -35 -31 -83 -50 -109 -43 -47 12 -55 38 -55 170
0 66 3 123 6 127 11 11 54 -25 60 -50z"/>
<path d="M5617 7887 c-3 -8 1 -14 9 -14 16 0 19 13 5 21 -5 3 -11 0 -14 -7z"/>
<path d="M5481 7344 c0 -11 3 -14 6 -6 3 7 2 16 -1 19 -3 4 -6 -2 -5 -13z"/>
<path d="M5205 7340 c-3 -5 -2 -10 4 -10 5 0 13 5 16 10 3 6 2 10 -4 10 -5 0
-13 -4 -16 -10z"/>
<path d="M5881 7155 c-91 -21 -178 -63 -203 -98 -33 -46 -33 -109 -1 -187 14
-36 34 -76 42 -90 9 -14 27 -47 41 -74 30 -58 132 -171 199 -220 96 -71 216
-113 373 -131 166 -19 272 146 297 463 6 76 5 109 -3 114 -17 12 -24 10 -46
-12 -22 -22 -25 -19 -9 11 19 37 -11 63 -133 114 -264 112 -416 142 -557 110z"/>
<path d="M5126 7089 c35 -34 66 -70 69 -80 5 -15 10 -17 25 -9 11 6 31 8 45 4
21 -5 24 -3 18 12 -5 13 -3 15 7 9 9 -5 11 -4 6 3 -4 7 -14 12 -22 12 -8 0
-12 -4 -9 -10 14 -22 -54 14 -121 66 -39 30 -74 54 -77 54 -3 0 23 -28 59 -61z"/>
<path d="M7080 6982 c-7 -8 -23 -12 -36 -9 -28 5 -23 -8 5 -16 11 -3 25 1 32
9 6 8 17 14 25 14 7 0 15 4 18 8 8 14 -30 8 -44 -6z"/>
<path d="M6938 6863 c7 -3 16 -2 19 1 4 3 -2 6 -13 5 -11 0 -14 -3 -6 -6z"/>
<path d="M6850 6797 c-20 -8 -22 -11 -8 -14 20 -5 55 12 42 19 -5 3 -20 1 -34
-5z"/>
<path d="M6798 6533 c6 -2 18 -2 25 0 6 3 1 5 -13 5 -14 0 -19 -2 -12 -5z"/>
<path d="M6720 6460 c-8 -5 -5 -9 8 -12 11 -3 25 -2 32 2 8 5 5 9 -8 12 -11 3
-25 2 -32 -2z"/>
<path d="M6655 6420 c28 -12 37 -12 30 0 -3 6 -16 10 -28 9 -21 0 -21 -1 -2
-9z"/>
<path d="M6710 6370 c-13 -8 -12 -10 3 -10 9 0 17 5 17 10 0 12 -1 12 -20 0z"/>
<path d="M6708 6323 c6 -2 18 -2 25 0 6 3 1 5 -13 5 -14 0 -19 -2 -12 -5z"/>
<path d="M6668 6173 c-10 -2 -18 -9 -18 -14 0 -6 5 -7 10 -4 6 3 10 -1 10 -9
0 -9 -7 -16 -16 -16 -8 0 -12 -5 -9 -10 9 -15 51 20 51 42 0 10 -3 17 -6 17
-3 -1 -13 -3 -22 -6z"/>
<path d="M5729 6140 c-9 -5 -20 -21 -23 -35 -4 -14 -11 -25 -17 -25 -6 0 -7
-4 -4 -10 3 -5 1 -10 -5 -10 -6 0 -8 -5 -4 -12 5 -8 11 -6 20 6 9 13 13 14 17
4 4 -8 6 -7 6 5 1 10 11 21 22 26 19 7 20 9 7 22 -14 12 -14 15 1 26 19 15 3
17 -20 3z"/>
<path d="M5640 6046 c0 -2 7 -7 16 -10 8 -3 12 -2 9 4 -6 10 -25 14 -25 6z"/>
<path d="M6015 5810 c-3 -5 -1 -10 4 -10 6 0 11 5 11 10 0 6 -2 10 -4 10 -3 0
-8 -4 -11 -10z"/>
<path d="M5968 5713 c7 -3 16 -2 19 1 4 3 -2 6 -13 5 -11 0 -14 -3 -6 -6z"/>
<path d="M5883 5585 c-9 -10 -9 -16 0 -27 18 -21 52 -45 43 -30 -4 6 -4 12 1
12 4 0 21 -34 37 -76 24 -63 30 -97 36 -206 4 -72 13 -135 19 -141 6 -6 11
-23 11 -38 0 -15 6 -29 14 -32 24 -9 14 184 -13 265 -12 34 -30 101 -41 148
-11 47 -28 96 -39 110 -20 28 -50 34 -68 15z m37 -5 c-9 -6 -11 -10 -3 -10 7
0 10 -7 6 -16 -5 -14 -7 -14 -22 1 -14 14 -14 17 -1 25 8 5 20 10 25 10 6 0 3
-5 -5 -10z"/>
<path d="M5909 5487 c8 -9 15 -27 17 -40 2 -12 11 -52 21 -89 9 -37 14 -70 12
-73 -3 -2 -15 -6 -28 -8 -12 -2 -27 -10 -32 -18 -7 -11 -9 -11 -9 -1 0 7 -4
10 -10 7 -5 -3 -10 -1 -10 4 0 23 -30 10 -36 -15 -6 -24 -8 -25 -17 -8 -6 10
-21 30 -33 43 -22 24 -22 23 4 -79 24 -90 28 -99 36 -76 11 29 26 35 26 9 0
-15 2 -14 14 3 8 10 18 16 22 11 4 -4 2 -7 -4 -7 -18 0 -15 -67 3 -74 10 -4
17 6 25 37 16 61 18 65 19 35 1 -25 21 -52 21 -28 0 27 20 -4 21 -33 1 -23 4
-16 11 23 19 112 -22 336 -70 380 -14 14 -15 13 -3 -3z m-2 -269 c-3 -8 -6 -5
-6 6 -1 11 2 17 5 13 3 -3 4 -12 1 -19z m-70 -30 c-3 -7 -5 -2 -5 12 0 14 2
19 5 13 2 -7 2 -19 0 -25z"/>
<path d="M5870 5466 c0 -2 8 -10 18 -17 15 -13 16 -12 3 4 -13 16 -21 21 -21
13z"/>
<path d="M7578 6313 c-27 -7 -21 -23 7 -23 14 0 25 4 25 9 0 13 -12 18 -32 14z"/>
<path d="M7555 6270 c-4 -6 3 -10 14 -10 25 0 27 6 6 13 -8 4 -17 2 -20 -3z"/>
<path d="M7190 5904 c-14 -36 -13 -39 15 -52 35 -16 60 -15 74 2 17 20 -2 54
-35 66 -37 15 -44 13 -54 -16z"/>
<path d="M7016 5793 c-11 -11 -6 -23 8 -23 8 0 17 4 20 9 7 10 -19 23 -28 14z"/>
<path d="M7427 5716 c-3 -8 -19 -16 -35 -18 l-30 -3 16 -35 c32 -66 120 -101
168 -66 19 14 19 15 -6 61 -27 49 -57 75 -89 75 -10 0 -21 -6 -24 -14z"/>
<path d="M7673 5333 c-18 -6 -16 -23 1 -23 17 0 30 16 19 23 -5 2 -14 2 -20 0z"/>
<path d="M7589 5212 c-15 -17 -14 -21 3 -42 23 -28 41 -16 36 26 -4 34 -18 40
-39 16z"/>
<path d="M8020 4945 c0 -8 4 -15 9 -15 5 0 14 7 21 15 10 13 9 15 -9 15 -12 0
-21 -6 -21 -15z"/>
<path d="M7660 4890 c0 -5 5 -10 11 -10 5 0 7 5 4 10 -3 6 -8 10 -11 10 -2 0
-4 -4 -4 -10z"/>
<path d="M7768 4809 c-47 -24 -51 -47 -8 -41 29 4 55 33 48 52 -2 4 -20 0 -40
-11z"/>
<path d="M7840 4650 c0 -5 5 -10 10 -10 6 0 10 5 10 10 0 6 -4 10 -10 10 -5 0
-10 -4 -10 -10z"/>
<path d="M7790 4570 c0 -5 5 -10 11 -10 5 0 7 5 4 10 -3 6 -8 10 -11 10 -2 0
-4 -4 -4 -10z"/>
<path d="M7762 4540 c0 -14 2 -19 5 -12 2 6 2 18 0 25 -3 6 -5 1 -5 -13z"/>
<path d="M4977 5400 c-3 -8 -8 -28 -11 -45 l-5 -30 15 34 c8 18 13 38 11 45
-3 7 -7 5 -10 -4z"/>
<path d="M4982 5320 c0 -14 2 -19 5 -12 2 6 2 18 0 25 -3 6 -5 1 -5 -13z"/>
<path d="M6600 5376 c0 -2 8 -10 18 -17 15 -13 16 -12 3 4 -13 16 -21 21 -21
13z"/>
<path d="M4383 1613 c9 -2 23 -2 30 0 6 3 -1 5 -18 5 -16 0 -22 -2 -12 -5z"/>
<path d="M4260 1100 c8 -5 22 -9 30 -9 10 0 8 3 -5 9 -27 12 -43 12 -25 0z"/>
<path d="M4383 1090 c16 -5 34 -14 42 -20 9 -7 15 -8 20 0 9 14 41 12 75 -5
25 -13 29 -13 24 -1 -6 15 -33 21 -134 30 -41 4 -48 3 -27 -4z"/>
<path d="M4270 1061 c14 -8 111 -16 135 -11 16 4 -76 18 -115 19 -25 0 -31 -2
-20 -8z"/>
<path d="M7700 1020 c0 -5 5 -10 10 -10 6 0 10 5 10 10 0 6 -4 10 -10 10 -5 0
-10 -4 -10 -10z"/>
<path d="M10232 6042 c-3 -33 -30 -82 -45 -82 -7 0 -17 -10 -22 -22 -6 -11
-24 -29 -42 -38 -18 -9 -48 -36 -68 -59 -35 -43 -44 -74 -25 -86 13 -8 3 -43
-17 -64 -13 -12 -14 -11 -11 10 2 15 -2 23 -9 22 -7 -2 -13 0 -13 5 0 4 -10 8
-23 8 -19 1 -28 -8 -47 -50 -12 -28 -26 -53 -31 -56 -10 -7 -27 -136 -21 -166
5 -29 12 -30 62 -4 29 15 39 27 42 47 2 16 8 27 16 25 14 -3 35 45 28 64 -7
18 13 29 27 15 6 -6 19 -11 28 -11 21 0 156 53 170 67 6 6 8 89 6 204 -1 107
-3 184 -5 171z"/>
<path d="M10210 5469 c-49 -19 -77 -83 -47 -106 6 -6 27 -13 45 -16 l32 -6 0
69 c0 39 -1 70 -2 69 -2 0 -14 -5 -28 -10z"/>
<path d="M9932 5320 c-18 -4 -41 -15 -51 -24 -10 -9 -22 -16 -28 -16 -15 0
-33 -55 -23 -66 4 -5 10 -31 13 -59 11 -109 19 -160 28 -171 5 -6 5 -15 0 -20
-5 -5 -11 -24 -15 -42 -7 -42 13 -52 50 -23 15 12 31 21 36 21 6 0 23 11 40
25 16 14 35 25 43 25 23 0 33 38 41 154 4 66 2 82 -13 99 -11 12 -14 21 -7 24
16 5 5 53 -12 53 -8 0 -17 6 -20 13 -5 15 -36 18 -82 7z"/>
<path d="M10212 5308 c-7 -7 -12 -20 -12 -29 0 -9 -7 -23 -16 -30 -34 -28 -55
-135 -28 -146 20 -8 17 -39 -10 -97 -33 -71 -41 -163 -16 -194 10 -13 27 -25
37 -27 10 -2 30 -6 46 -10 l27 -7 0 276 c0 152 -4 276 -8 276 -4 0 -13 -5 -20
-12z"/>
<path d="M10096 4045 c-3 -9 0 -15 9 -15 9 0 12 6 9 15 -4 8 -7 15 -9 15 -2 0
-5 -7 -9 -15z"/>
<path d="M10217 3028 c-15 -16 -16 -21 -3 -33 13 -13 15 -11 21 16 8 38 5 41
-18 17z"/>
<path d="M10226 2601 c-4 -7 -5 -15 -2 -18 9 -9 19 4 14 18 -4 11 -6 11 -12 0z"/>
<path d="M10180 2420 c0 -5 5 -10 11 -10 5 0 7 5 4 10 -3 6 -8 10 -11 10 -2 0
-4 -4 -4 -10z"/>
<path d="M10220 2420 c-13 -8 -12 -10 3 -10 9 0 17 5 17 10 0 12 -1 12 -20 0z"/>
<path d="M2 1616 c-1 -43 0 -45 18 -34 25 16 25 29 2 58 -17 22 -18 21 -20
-24z"/>
<path d="M286 1527 c3 -10 9 -15 12 -12 3 3 0 11 -7 18 -10 9 -11 8 -5 -6z"/>
<path d="M226 1484 c-9 -23 -2 -28 13 -10 7 8 8 17 3 20 -6 3 -13 -1 -16 -10z"/>
<path d="M227 1395 c3 -15 1 -25 -6 -25 -6 0 -11 -7 -11 -15 0 -12 5 -10 21 6
21 21 22 50 3 56 -7 2 -10 -6 -7 -22z"/>
<path d="M160 1390 c0 -5 5 -10 11 -10 5 0 7 5 4 10 -3 6 -8 10 -11 10 -2 0
-4 -4 -4 -10z"/>
<path d="M281 1364 c0 -11 3 -14 6 -6 3 7 2 16 -1 19 -3 4 -6 -2 -5 -13z"/>
<path d="M157 1337 c-3 -7 3 -13 13 -13 10 0 16 6 13 13 -3 7 -9 13 -13 13 -4
0 -10 -6 -13 -13z"/>
<path d="M60 1332 c0 -12 19 -26 26 -19 2 2 -2 10 -11 17 -9 8 -15 8 -15 2z"/>
<path d="M120 1310 c0 -5 7 -10 16 -10 8 0 12 5 9 10 -3 6 -10 10 -16 10 -5 0
-9 -4 -9 -10z"/>
<path d="M17 1292 c5 -22 43 -47 52 -34 3 5 13 12 21 16 8 3 3 4 -12 1 -17 -3
-28 -1 -28 5 0 6 -4 8 -10 5 -6 -3 -10 1 -10 9 0 9 -4 16 -9 16 -5 0 -7 -8 -4
-18z"/>
<path d="M185 1300 c-3 -5 -1 -10 4 -10 6 0 11 5 11 10 0 6 -2 10 -4 10 -3 0
-8 -4 -11 -10z"/>
<path d="M120 1280 c0 -5 5 -10 10 -10 6 0 10 5 10 10 0 6 -4 10 -10 10 -5 0
-10 -4 -10 -10z"/>
</g>
</svg>
